<?xml version="1.0" encoding="utf-8"?>
<!-- Generator: Adobe Illustrator 16.0.0, SVG Export Plug-In . SVG Version: 6.00 Build 0)  -->
<!DOCTYPE svg PUBLIC "-//W3C//DTD SVG 1.1//EN" "http://www.w3.org/Graphics/SVG/1.1/DTD/svg11.dtd">
<svg version="1.1" id="Ebene_1" xmlns="http://www.w3.org/2000/svg" xmlns:xlink="http://www.w3.org/1999/xlink" x="0px" y="0px"
	 width="42px" height="42px" viewBox="0 0 42 42" enable-background="new 0 0 42 42" xml:space="preserve">
<g>
	<path fill="#3D658C" d="M42,21c0,11.597-9.403,21-21.003,21C9.402,42,0,32.597,0,21C0,9.402,9.402,0,20.997,0
		C32.597,0.001,42,9.403,42,21z"/>
</g>
<g id="TbOKT9.tif">
	<g>
		<path fill="#FFFFFF" d="M9.529,12.344c7.647,0,15.295,0,22.943,0c0,5.771,0,11.542,0,17.312c-7.647,0-15.296,0-22.943,0
			c0-0.039,0-0.084,0-0.123c0-5.68,0-11.358,0-17.038C9.528,12.445,9.528,12.394,9.529,12.344z M29.873,13.962
			c-0.112-0.019-17.526-0.014-17.6,0.004c0.023,0.025,0.044,0.049,0.066,0.071c1.784,1.807,3.568,3.612,5.352,5.419
			c0.861,0.872,1.722,1.742,2.583,2.614c0.092,0.094,0.194,0.174,0.317,0.229c0.388,0.171,0.918,0.092,1.234-0.227
			c2.658-2.685,5.322-5.363,7.984-8.043C29.828,14.01,29.845,13.989,29.873,13.962z M12.27,28.031
			c0.002,0.007,0.004,0.013,0.007,0.019c0.042,0.002,0.086,0.002,0.13,0.002c5.735,0.003,11.47,0.003,17.204,0.003
			c0.024,0,0.049,0,0.073-0.003c0.017-0.002,0.036-0.008,0.063-0.012c-1.919-1.967-3.831-3.924-5.748-5.886
			c-0.027,0.026-0.053,0.051-0.075,0.073c-0.329,0.332-0.659,0.663-0.991,0.997c-0.068,0.067-0.138,0.134-0.211,0.192
			c-0.563,0.442-1.203,0.624-1.911,0.563c-0.67-0.056-1.239-0.326-1.707-0.814c-0.319-0.334-0.649-0.66-0.975-0.989
			c-0.02-0.019-0.042-0.039-0.067-0.062C16.128,24.09,14.199,26.06,12.27,28.031z M11.141,26.873
			c0.006,0.002,0.012,0.002,0.018,0.007c1.925-1.97,3.851-3.937,5.777-5.901c-0.105-0.133-5.735-5.822-5.794-5.855
			C11.141,19.041,11.141,22.956,11.141,26.873z M30.87,26.896c0-3.894,0-7.768,0-11.647c-0.087,0.062-5.7,5.719-5.733,5.777
			C27.042,22.979,28.949,24.932,30.87,26.896z"/>
	</g>
</g>
</svg>
