<?xml version="1.0" encoding="utf-8"?>
<!-- Generator: Adobe Illustrator 16.0.0, SVG Export Plug-In . SVG Version: 6.00 Build 0)  -->
<!DOCTYPE svg PUBLIC "-//W3C//DTD SVG 1.1//EN" "http://www.w3.org/Graphics/SVG/1.1/DTD/svg11.dtd">
<svg version="1.1" id="Ebene_1" xmlns="http://www.w3.org/2000/svg" xmlns:xlink="http://www.w3.org/1999/xlink" x="0px" y="0px"
	 width="42px" height="42px" viewBox="0 0 42 42" enable-background="new 0 0 42 42" xml:space="preserve">
<g>
	<path fill="#3D658C" d="M42,21c0,11.597-9.403,21-21.003,21C9.402,42,0,32.597,0,21C0,9.402,9.402,0,20.997,0
		C32.597,0.001,42,9.403,42,21z"/>
	<g id="PmQd5U.tif">
		<g>
			<path fill="#FFFFFF" d="M22.163,9.707c1.348,0,2.695,0,4.042,0c0,1.291,0,2.582,0,3.888c-0.821,0-1.606-0.001-2.392,0
				c-0.769,0-1.127,0.354-1.129,1.122c-0.004,0.691-0.001,1.382,0,2.072c0,0.074,0.009,0.148,0.016,0.242c1.194,0,2.367,0,3.562,0
				c-0.139,1.341-0.274,2.657-0.412,3.991c-1.074,0-2.106,0-3.173,0c0,3.773,0,7.523,0,11.271c-1.574,0-3.118,0-4.689,0
				c0-3.759,0-7.502,0-11.293c-0.77,0-1.511,0-2.25,0c0-1.312,0-2.625,0-3.938c0.093-0.013,0.185-0.037,0.277-0.038
				c0.492-0.004,0.983-0.002,1.474-0.002c0.161,0,0.322,0,0.5,0c0-0.833-0.015-1.625,0.007-2.416
				c0.012-0.473,0.036-0.952,0.136-1.412c0.369-1.712,1.363-2.867,3.096-3.312C21.534,9.804,21.853,9.765,22.163,9.707z"/>
		</g>
	</g>
</g>
</svg>
