<?xml version="1.0" encoding="utf-8"?>
<!-- Generator: Adobe Illustrator 16.0.0, SVG Export Plug-In . SVG Version: 6.00 Build 0)  -->
<!DOCTYPE svg PUBLIC "-//W3C//DTD SVG 1.1//EN" "http://www.w3.org/Graphics/SVG/1.1/DTD/svg11.dtd">
<svg version="1.1" id="Ebene_1" xmlns="http://www.w3.org/2000/svg" xmlns:xlink="http://www.w3.org/1999/xlink" x="0px" y="0px"
	 width="42px" height="42px" viewBox="-9 -9 42 42" enable-background="new -9 -9 42 42" xml:space="preserve">
<path fill="#3D658C" d="M32.996,12.042c0,11.596-9.403,21-21.003,21c-11.595,0-20.997-9.403-20.997-21c0-11.598,9.402-21,20.997-21
	C23.593-8.957,32.996,0.445,32.996,12.042z"/>
<g>
	<path fill="#FFFFFF" d="M12.046,5.237c-3.76,0-6.81,3.048-6.81,6.809c0,3.764,3.05,6.81,6.81,6.81c3.761,0,6.812-3.049,6.812-6.81
		C18.857,8.286,15.807,5.237,12.046,5.237z M12.046,16.467c-2.439,0-4.419-1.979-4.419-4.421s1.979-4.419,4.419-4.419
		c2.44,0,4.419,1.978,4.419,4.419S14.486,16.467,12.046,16.467z"/>
	<circle fill="#FFFFFF" cx="19.124" cy="4.968" r="1.591"/>
	<path fill="#FFFFFF" d="M25.229,6.579c-0.218-4.81-2.893-7.491-7.714-7.713c-1.414-0.066-1.869-0.081-5.469-0.081
		c-3.601,0-4.052,0.015-5.468,0.081C1.76-0.914-0.914,1.759-1.136,6.579c-0.065,1.415-0.08,1.866-0.08,5.467
		c0,3.6,0.015,4.055,0.08,5.467c0.222,4.819,2.895,7.492,7.714,7.716c1.416,0.064,1.867,0.078,5.468,0.078
		c3.6,0,4.055-0.014,5.469-0.078c4.81-0.224,7.494-2.893,7.714-7.716c0.064-1.412,0.078-1.867,0.078-5.467
		C25.307,8.445,25.293,7.994,25.229,6.579z M22.842,17.404c-0.164,3.567-1.84,5.276-5.438,5.438
		c-1.397,0.064-1.815,0.078-5.358,0.078c-3.541,0-3.961-0.014-5.358-0.078c-3.604-0.166-5.272-1.876-5.437-5.438
		c-0.062-1.398-0.078-1.817-0.078-5.358c0-3.541,0.016-3.959,0.078-5.358C1.416,3.119,3.09,1.416,6.688,1.251
		c1.398-0.062,1.817-0.074,5.358-0.074c3.541,0,3.961,0.01,5.358,0.074c3.595,0.165,5.273,1.87,5.438,5.437
		c0.065,1.398,0.075,1.817,0.075,5.358C22.917,15.587,22.907,16.007,22.842,17.404z"/>
</g>
</svg>
