<?xml version="1.0" encoding="utf-8"?>
<!-- Generator: Adobe Illustrator 16.0.0, SVG Export Plug-In . SVG Version: 6.00 Build 0)  -->
<!DOCTYPE svg PUBLIC "-//W3C//DTD SVG 1.1//EN" "http://www.w3.org/Graphics/SVG/1.1/DTD/svg11.dtd">
<svg version="1.1" id="Ebene_1" xmlns="http://www.w3.org/2000/svg" xmlns:xlink="http://www.w3.org/1999/xlink" x="0px" y="0px"
	 width="42px" height="42px" viewBox="0 0 42 42" enable-background="new 0 0 42 42" xml:space="preserve">
<g>
	<path fill="#3D658C" d="M42,21c0,11.598-9.402,21-21.003,21C9.402,42,0,32.598,0,21C0,9.402,9.402,0,20.997,0
		C32.598,0.001,42,9.403,42,21z"/>
</g>
<g id="OCreV3_1_">
	<g>
		<path fill-rule="evenodd" clip-rule="evenodd" fill="#FFFFFF" d="M21.919,18.684c0.065-0.071,0.139-0.14,0.197-0.218
			c0.665-0.896,1.519-1.536,2.562-1.94c1.001-0.389,2.04-0.462,3.083-0.337c1.473,0.176,2.694,0.841,3.57,2.074
			c0.448,0.63,0.771,1.319,0.939,2.073c0.11,0.494,0.205,0.995,0.259,1.499c0.182,1.633,0.065,3.274,0.083,4.912
			c0.02,1.798,0.002,3.598,0.01,5.397c0,0.209-0.046,0.291-0.275,0.289c-1.486-0.01-2.975-0.009-4.462-0.001
			c-0.212,0.001-0.267-0.071-0.267-0.276c0.006-2.8,0.01-5.6,0-8.399c-0.002-0.511-0.018-1.031-0.115-1.529
			c-0.178-0.896-0.608-1.652-1.53-1.965c-0.452-0.153-0.933-0.165-1.425-0.056c-0.492,0.108-0.893,0.339-1.24,0.674
			c-0.413,0.399-0.72,0.871-0.805,1.451c-0.051,0.334-0.087,0.675-0.087,1.013c-0.008,2.924-0.004,5.847-0.004,8.77
			c0,0.316,0,0.314-0.324,0.314c-1.444-0.001-2.888,0-4.332,0c-0.293,0-0.298,0-0.298-0.302c0-3.532,0.01-7.065-0.003-10.599
			c-0.005-1.414-0.058-2.828-0.094-4.242c-0.005-0.195-0.033-0.389-0.053-0.584c-0.015-0.15,0.061-0.214,0.202-0.216
			c0.145-0.002,0.29-0.002,0.435-0.002c1.146-0.001,2.292,0.003,3.438-0.006c0.205-0.002,0.252,0.081,0.27,0.268
			c0.059,0.634,0.136,1.266,0.203,1.897C21.879,18.656,21.899,18.67,21.919,18.684z"/>
		<path fill-rule="evenodd" clip-rule="evenodd" fill="#FFFFFF" d="M14.468,32.418c-1.659,0-3.28,0-4.919,0
			c-0.006-0.07-0.016-0.133-0.016-0.195c-0.001-5.171,0-10.342-0.004-15.512c0-0.176,0.065-0.228,0.228-0.228
			c1.516,0.003,3.032,0.003,4.547-0.001c0.125,0,0.174,0.044,0.165,0.164c-0.002,0.029,0,0.058,0,0.087c0,5.149,0,10.298,0,15.447
			C14.468,32.251,14.468,32.322,14.468,32.418z"/>
		<path fill-rule="evenodd" clip-rule="evenodd" fill="#FFFFFF" d="M14.648,11.932c-0.034,1.19-0.609,2.099-1.705,2.446
			c-0.879,0.278-1.721,0.209-2.506-0.285C10,13.818,9.714,13.418,9.533,12.93c-0.193-0.52-0.223-1.047-0.068-1.565
			c0.243-0.811,0.767-1.365,1.589-1.635c0.573-0.187,1.147-0.218,1.722-0.067c0.815,0.214,1.418,0.691,1.688,1.517
			C14.56,11.468,14.611,11.772,14.648,11.932z"/>
	</g>
</g>
</svg>
