<?xml version="1.0" encoding="utf-8"?>
<!-- Generator: Adobe Illustrator 16.0.0, SVG Export Plug-In . SVG Version: 6.00 Build 0)  -->
<!DOCTYPE svg PUBLIC "-//W3C//DTD SVG 1.1//EN" "http://www.w3.org/Graphics/SVG/1.1/DTD/svg11.dtd">
<svg version="1.1" id="Ebene_1" xmlns="http://www.w3.org/2000/svg" xmlns:xlink="http://www.w3.org/1999/xlink" x="0px" y="0px"
	 width="820.426px" height="170.521px" viewBox="-1 -125.368 820.426 170.521" enable-background="new -1 -125.368 820.426 170.521"
	 xml:space="preserve">
<g>
	<path fill="#FFFFFF" d="M47.409-121.44c4.783-0.761,14.353-1.526,23.56-1.526c11.124,0,17.944,0.983,23.92,4.146
		c5.623,2.727,9.569,7.741,9.569,14.507c0,6.433-4.188,12.435-13.277,15.597v0.218c9.211,2.18,16.027,8.613,16.027,17.991
		c0,6.762-3.349,11.998-8.368,15.708c-5.864,4.253-15.669,6.655-31.694,6.655c-8.973,0-15.669-0.542-19.736-1.09V-121.44z
		 M65.467-93.306h5.983c9.686,0,14.71-3.594,14.71-9.049c0-5.565-4.662-8.51-12.917-8.51c-4.064,0-6.338,0.222-7.776,0.44V-93.306z
		 M65.467-60.694c1.795,0.223,3.947,0.223,7.056,0.223c8.251,0,15.546-2.945,15.546-10.69c0-7.31-7.295-10.254-16.385-10.254h-6.221
		v20.722H65.467z"/>
	<path fill="#FFFFFF" d="M119.055-84.685c0-7.852-0.121-12.981-0.479-17.559h15.546l0.715,9.813h0.479
		c2.992-7.851,10.047-11.125,15.786-11.125c1.677,0,2.516,0.111,3.83,0.329v15.597c-1.432-0.218-2.869-0.44-4.902-0.44
		c-6.697,0-11.242,3.274-12.438,8.399c-0.239,1.09-0.358,2.402-0.358,3.706v27.048h-18.178V-84.685z"/>
	<path fill="#FFFFFF" d="M211.873-61.783c0,5.018,0.24,9.925,0.955,12.87h-16.384l-1.074-5.343h-0.357
		c-3.83,4.253-9.811,6.544-16.746,6.544c-11.84,0-18.894-7.848-18.894-16.358c0-13.853,13.632-20.393,34.321-20.393v-0.654
		c0-2.945-1.672-6.98-10.645-6.98c-5.977,0-12.318,1.855-16.144,4.035l-3.349-10.69c4.065-2.069,12.08-4.8,22.728-4.8
		c19.492,0,25.596,10.472,25.596,23.124v18.645H211.873z M194.287-74.106c-9.565,0-16.981,2.073-16.981,8.398
		c0,4.253,3.107,6.326,7.177,6.326c4.427,0,8.252-2.727,9.451-6.108c0.24-0.872,0.359-1.855,0.359-2.834v-5.782H194.287z"/>
	<path fill="#FFFFFF" d="M281.485-66.036c0,6.98,0.241,12.652,0.477,17.119h-15.786l-0.839-7.523h-0.357
		c-2.274,3.27-7.776,8.72-18.3,8.72c-11.963,0-20.571-6.758-20.571-23.227v-31.297h18.178v28.681c0,7.741,2.751,12.435,9.211,12.435
		c5.026,0,8.013-3.159,9.091-5.779c0.475-0.983,0.715-2.184,0.715-3.599v-31.737h18.178v36.208H281.485z"/>
	<path fill="#FFFFFF" d="M296.084-85.232c0-6.651-0.241-12.212-0.481-17.012h15.791l0.839,7.416h0.357
		c2.392-3.492,8.251-8.617,18.061-8.617c11.957,0,20.928,7.305,20.928,23.013v31.515h-18.178V-78.47
		c0-6.869-2.633-11.562-9.212-11.562c-5.02,0-8.01,3.163-9.328,6.219c-0.48,1.089-0.599,2.616-0.599,4.142v30.754h-18.178V-85.232z"
		/>
	<path fill="#FFFFFF" d="M447.032-48.917c-1.674-1.633-3.348-3.27-5.264-5.232c-5.262,3.71-12.559,6.433-22.125,6.433
		c-19.496,0-28.107-10.467-28.107-20.828c0-9.707,6.1-16.688,15.312-21.158v-0.329c-3.471-3.595-6.222-8.942-6.222-14.285
		c0-9.271,8.135-19.414,24.397-19.414c12.438,0,21.767,6.651,21.767,17.23c0,7.42-4.779,13.85-15.906,18.867l-0.118,0.436
		c4.664,4.8,9.57,10.143,13.516,13.853c3.232-4.685,5.741-11.451,6.819-17.991h16.268c-2.15,11.233-6.224,20.723-13.396,27.92
		c4.541,4.796,9.209,9.596,14.231,14.503h-21.171V-48.917z M433.274-63.42c-4.903-4.476-11.479-11.344-18.176-18.102
		c-3.348,2.287-6.338,5.45-6.338,10.25c0,6.322,5.142,11.562,13.631,11.562C426.94-59.71,430.883-61.347,433.274-63.42z
		 M424.188-113.37c-4.665,0-7.178,3.707-7.178,7.527c0,3.706,1.794,6.98,5.619,10.579c5.865-3.595,8.728-6.544,8.728-10.793
		c0-3.492-2.27-7.309-6.935-7.309h-0.234V-113.37z"/>
	<path fill="#FFFFFF" d="M520.357-48.917l-25.839-73.506H514.5l9.802,31.083c2.753,8.831,5.266,17.119,7.178,26.279h0.357
		c2.036-8.831,4.546-17.559,7.293-25.954l10.292-31.412h19.372l-27.151,73.506h-21.285V-48.917z"/>
	<path fill="#FFFFFF" d="M629.561-76.179c0,19.521-15.187,28.462-30.857,28.462c-17.102,0-30.26-10.25-30.26-27.479
		c0-17.341,12.434-28.356,31.338-28.356C617.6-103.556,629.561-92.319,629.561-76.179z M587.225-75.636
		c0,9.16,4.183,16.037,11.956,16.037c7.178,0,11.6-6.437,11.6-16.144c0-7.852-3.349-15.922-11.6-15.922
		C590.573-91.665,587.225-83.488,587.225-75.636z"/>
	<path fill="#FFFFFF" d="M659.587-117.08c0,4.582-3.707,8.288-9.811,8.288c-5.738,0-9.448-3.706-9.448-8.288
		c0-4.689,3.83-8.288,9.69-8.288C655.88-125.368,659.472-121.769,659.587-117.08z M640.81-48.917v-53.327h18.176v53.327H640.81z"/>
	<path fill="#FFFFFF" d="M728.959-56.658c0,10.254-2.271,18.653-8.967,23.996c-6.343,5.018-15.07,6.544-23.684,6.544
		c-7.778,0-15.786-1.419-21.051-4.035l3.586-12.648c3.706,1.962,10.049,4.035,16.987,4.035c8.605,0,15.186-4.143,15.186-14.067
		v-3.389h-0.238c-3.467,4.364-9.09,6.869-15.79,6.869c-14.475,0-24.757-10.689-24.757-25.958c0-17.23,12.076-28.139,26.55-28.139
		c8.009,0,13.034,3.164,16.029,7.634h0.238l0.597-6.433h15.79c-0.239,3.487-0.477,7.958-0.477,15.917V-56.658L728.959-56.658z
		 M710.779-80.543c0-0.979-0.119-2.073-0.357-3.052c-1.312-4.364-4.784-7.309-9.81-7.309c-6.696,0-11.962,5.454-11.962,15.161
		c0,7.963,4.303,14.174,11.842,14.174c4.784,0,8.494-2.834,9.687-6.655c0.481-1.308,0.601-3.052,0.601-4.471V-80.543z"/>
	<path fill="#FFFFFF" d="M763.887-116.644v14.4h13.039v12.212h-13.039v19.303c0,6.438,1.794,9.382,7.183,9.382
		c2.509,0,3.701-0.111,5.38-0.44l0.122,12.544c-2.273,0.761-6.695,1.416-11.722,1.416c-5.857,0-10.768-1.855-13.754-4.578
		c-3.349-3.167-5.022-8.292-5.022-15.819v-21.812h-7.777v-12.211h7.777v-9.921L763.887-116.644z"/>
</g>
<circle fill="none" stroke="#FFFFFF" stroke-width="3" stroke-miterlimit="10" cx="19.943" cy="24.21" r="19.443"/>
<circle fill="none" stroke="#FFFFFF" stroke-width="3" stroke-miterlimit="10" cx="219.841" cy="24.21" r="19.443"/>
<circle fill="none" stroke="#FFFFFF" stroke-width="3" stroke-miterlimit="10" cx="419.742" cy="24.21" r="19.443"/>
<path fill="#BE0A26" stroke="#BE0A26" stroke-width="3" stroke-miterlimit="10" d="M798.479,4.768
	c10.739,0,19.447,8.707,19.447,19.443c0,10.739-8.708,19.442-19.447,19.442c-10.735,0-19.438-8.703-19.438-19.442
	C779.041,13.475,787.744,4.768,798.479,4.768z"/>
</svg>
