<?xml version="1.0" encoding="utf-8"?>
<!-- Generator: Adobe Illustrator 16.0.0, SVG Export Plug-In . SVG Version: 6.00 Build 0)  -->
<!DOCTYPE svg PUBLIC "-//W3C//DTD SVG 1.1//EN" "http://www.w3.org/Graphics/SVG/1.1/DTD/svg11.dtd">
<svg version="1.1" id="Ebene_1" xmlns="http://www.w3.org/2000/svg" xmlns:xlink="http://www.w3.org/1999/xlink" x="0px" y="0px"
	 width="199.694px" height="86.229px" viewBox="347.711 18.044 199.694 86.229"
	 enable-background="new 347.711 18.044 199.694 86.229" xml:space="preserve">
<g>
	<path fill="#9C9E9F" d="M54.345,52.983c-0.646-12.414-7.151-16.508-18.214-15.931c-3.103,0.163-6.933,0.739-10.517,1.674
		L15.447,49.242L12.869,0l-2.603,0.136L0,12.593l4.599,87.738l13.614-0.713l-2.395-45.723c5.122-3.351,10.68-5.494,15.228-5.731
		c7.499-0.393,10.021,3.051,10.432,10.92l2.059,39.205l13.15-0.688L54.345,52.983z"/>
	<path fill="#9C9E9F" d="M167.723,89.194v-5.285c0-1.137-0.175-2.572-2.353-2.572c-0.883,0-2.035,0.426-2.775,0.947
		c-0.396-0.648-1.042-0.932-1.862-0.932c-0.789,0-1.752,0.313-2.604,0.885l-0.062-0.049l-0.017-0.693h-1.245v7.699h1.277v-6.043
		c0.678-0.426,1.529-0.742,2.287-0.742s1.246,0.443,1.246,1.453v5.332h1.278v-5.08c0-0.271-0.016-0.695-0.095-1.041
		c0.583-0.379,1.547-0.68,2.226-0.68c1.183,0,1.404,0.614,1.404,1.721v5.08H167.723z M150.644,89.368
		c0.536,0,1.578-0.174,2.587-1.072l0.032,0.031l0.017,0.867h1.245v-7.715c-0.409,0-0.836,0.016-1.262,0.016v5.838
		c-0.742,0.662-1.657,0.979-2.241,0.979c-1.199,0-1.324-0.647-1.324-1.721v-5.096h-1.279v5.412
		C148.418,88.042,148.545,89.368,150.644,89.368 M143.312,81.321c-2.902,0-3.377,2.666-3.377,4.039c0,2.146,0.68,3.93,3.424,3.93
		c1.025,0,1.957-0.221,2.872-0.711l-0.315-0.82c-0.867,0.363-1.562,0.553-2.461,0.553c-1.721,0-2.209-1.264-2.192-2.698h5.157
		v-0.615C146.42,84.049,146.39,81.321,143.312,81.321 M143.345,82.267c1.42,0,1.859,1.026,1.859,2.51h-3.928
		C141.371,83.465,141.86,82.267,143.345,82.267 M132.459,88.69c0.693,0.395,1.83,0.6,2.744,0.6c1.77,0,3.047-0.664,3.047-2.209
		c0-1.627-1.356-1.99-2.65-2.4c-0.632-0.203-1.643-0.504-1.643-1.166c0-0.852,0.758-1.137,1.562-1.137
		c0.536,0,1.137,0.094,1.926,0.41l0.393-0.9c-0.678-0.408-1.654-0.551-2.303-0.551c-1.547,0-2.793,0.678-2.793,2.162
		c0,1.42,1.262,1.766,2.604,2.24c0.866,0.299,1.655,0.537,1.655,1.354c0,0.933-0.771,1.232-1.75,1.232
		c-0.553,0-1.404-0.08-2.383-0.521L132.459,88.69z M126.766,89.368c0.536,0,1.578-0.174,2.588-1.072l0.031,0.031l0.016,0.867h1.246
		v-7.715c-0.41,0-0.836,0.016-1.262,0.016v5.838c-0.742,0.662-1.657,0.979-2.241,0.979c-1.198,0-1.325-0.647-1.325-1.721v-5.096
		h-1.277v5.412C124.541,88.042,124.666,89.368,126.766,89.368 M122.264,89.194v-5.285c0-1.137-0.174-2.572-2.353-2.572
		c-0.883,0-2.035,0.426-2.775,0.947c-0.395-0.648-1.041-0.932-1.862-0.932c-0.789,0-1.751,0.313-2.604,0.885l-0.062-0.049
		l-0.017-0.693h-1.246v7.699h1.277v-6.043c0.68-0.426,1.531-0.742,2.287-0.742c0.758,0,1.248,0.443,1.248,1.453v5.332h1.277v-5.08
		c0-0.271-0.017-0.695-0.096-1.041c0.584-0.379,1.548-0.68,2.226-0.68c1.183,0,1.404,0.614,1.404,1.721v5.08H122.264z
		 M106.216,81.321c-2.903,0-3.378,2.666-3.378,4.039c0,2.146,0.681,3.93,3.426,3.93c1.025,0,1.957-0.221,2.872-0.711l-0.316-0.82
		c-0.867,0.363-1.562,0.553-2.461,0.553c-1.72,0-2.209-1.264-2.193-2.698h5.16v-0.615C109.324,84.049,109.293,81.321,106.216,81.321
		 M106.246,82.267c1.42,0,1.862,1.026,1.862,2.51h-3.929C104.274,83.465,104.764,82.267,106.246,82.267 M95.361,88.69
		c0.694,0.395,1.83,0.6,2.745,0.6c1.767,0,3.045-0.664,3.045-2.209c0-1.627-1.356-1.99-2.649-2.4
		c-0.633-0.203-1.642-0.504-1.642-1.166c0-0.852,0.757-1.137,1.562-1.137c0.537,0,1.138,0.094,1.927,0.41l0.395-0.9
		c-0.679-0.408-1.658-0.551-2.305-0.551c-1.546,0-2.792,0.678-2.792,2.162c0,1.42,1.263,1.766,2.603,2.24
		c0.869,0.299,1.658,0.537,1.658,1.354c0,0.933-0.773,1.232-1.752,1.232c-0.553,0-1.404-0.08-2.383-0.521L95.361,88.69z
		 M93.55,89.194v-5.396c0-1.15-0.157-2.477-2.257-2.477c-0.74,0-1.813,0.313-2.683,0.867l-0.047-0.031l-0.018-0.662h-1.262v7.699
		h1.295v-6.06c0.662-0.379,1.625-0.758,2.352-0.758c1.215,0,1.341,0.662,1.341,1.735v5.08h1.278V89.194z M84.447,83.924
		c0-1.896-0.978-2.557-2.603-2.557c-0.964,0-2.1,0.221-2.967,0.614l0.284,0.869c0.773-0.27,1.625-0.428,2.382-0.428
		c1.278,0,1.657,0.475,1.657,1.752v0.488l-1.972,0.127c-1.957,0.127-2.92,0.979-2.92,2.32c0,0.883,0.458,2.209,2.24,2.209
		c0.474,0,1.483,0,2.667-1.01l0.016,0.016c0.032,0.805,0.379,0.977,0.995,0.977c0.41,0,0.962-0.125,1.341-0.314l-0.079-0.758h-1.042
		V83.924z M83.201,85.519v1.799c-0.71,0.646-1.436,1.01-2.099,1.01c-1.011,0-1.42-0.443-1.42-1.342c0-0.773,0.505-1.293,1.547-1.34
		L83.201,85.519z M76.132,89.194V78.401h-1.373v4.545H69.71c0-1.531,0.017-3.014,0.017-4.545h-1.373v10.793h1.373
		c0-1.721-0.017-3.439-0.017-5.16h5.049v5.16H76.132z"/>
	<path fill="#9C9E9F" d="M151.347,71.571c0.693,0.395,1.831,0.6,2.745,0.6c1.768,0,3.046-0.662,3.046-2.209
		c0-1.625-1.356-1.988-2.651-2.398c-0.631-0.205-1.641-0.506-1.641-1.168c0-0.852,0.758-1.135,1.562-1.135
		c0.537,0,1.136,0.094,1.925,0.41l0.396-0.9c-0.681-0.41-1.658-0.553-2.306-0.553c-1.546,0-2.793,0.68-2.793,2.162
		c0,1.42,1.263,1.768,2.604,2.24c0.869,0.301,1.656,0.537,1.656,1.357c0,0.93-0.773,1.229-1.751,1.229
		c-0.553,0-1.403-0.078-2.384-0.521L151.347,71.571z M146.74,64.202c-2.903,0-3.377,2.666-3.377,4.039
		c0,2.146,0.679,3.93,3.424,3.93c1.025,0,1.957-0.221,2.871-0.709l-0.315-0.822c-0.865,0.363-1.562,0.553-2.461,0.553
		c-1.72,0-2.209-1.262-2.191-2.698h5.158v-0.613C149.848,66.933,149.816,64.202,146.74,64.202 M146.771,65.149
		c1.42,0,1.86,1.024,1.86,2.508h-3.929C144.799,66.349,145.288,65.149,146.771,65.149 M136.451,64.991l0.049-1.641v-2.494h-1.278
		v11.219h1.294v-6.059c0.663-0.379,1.626-0.757,2.351-0.757c1.231,0,1.343,0.662,1.343,1.734v5.08h1.278v-5.394
		c0-1.152-0.111-2.479-2.209-2.479c-0.695,0-1.77,0.362-2.699,0.852L136.451,64.991z M128.8,68.194c0-1.783,0.82-2.951,2.305-2.951
		c0.504,0,1.071,0.031,1.813,0.285l0.3-0.932c-0.805-0.332-1.529-0.396-2.226-0.396c-2.902,0-3.518,2.479-3.518,4.118
		c0,2.193,0.866,3.851,3.438,3.851c1.025,0,2.021-0.282,2.683-0.646l-0.348-0.853c-0.771,0.313-1.42,0.488-2.226,0.488
		C129.32,71.161,128.8,69.899,128.8,68.194 M120.137,71.571c0.693,0.395,1.829,0.6,2.745,0.6c1.769,0,3.046-0.662,3.046-2.209
		c0-1.625-1.357-1.988-2.65-2.398c-0.631-0.205-1.642-0.506-1.642-1.168c0-0.852,0.757-1.135,1.562-1.135
		c0.537,0,1.137,0.094,1.926,0.41l0.396-0.9c-0.68-0.41-1.656-0.553-2.305-0.553c-1.546,0-2.793,0.68-2.793,2.162
		c0,1.42,1.264,1.768,2.604,2.24c0.867,0.301,1.655,0.537,1.655,1.357c0,0.93-0.772,1.229-1.751,1.229
		c-0.553,0-1.404-0.078-2.384-0.521L120.137,71.571z M118.417,62.356c0-0.474-0.394-0.853-0.868-0.853
		c-0.44,0-0.836,0.379-0.836,0.853c0,0.44,0.396,0.836,0.836,0.836C118.023,63.192,118.417,62.797,118.417,62.356 M118.181,64.375
		h-1.278v7.699h1.278V64.375z M110.307,62.562c0-0.41-0.301-0.695-0.742-0.695c-0.363,0-0.709,0.301-0.709,0.695
		c0,0.394,0.314,0.694,0.726,0.694C110.007,63.256,110.307,62.956,110.307,62.562 M113.273,62.562c0-0.41-0.332-0.695-0.773-0.695
		c-0.362,0-0.678,0.301-0.678,0.695c0,0.394,0.283,0.694,0.678,0.694C112.941,63.256,113.273,62.956,113.273,62.562 M113.811,66.806
		c0-1.896-0.979-2.556-2.604-2.556c-0.962,0-2.099,0.222-2.966,0.612l0.283,0.869c0.772-0.268,1.625-0.426,2.383-0.426
		c1.279,0,1.656,0.473,1.656,1.75v0.49l-1.973,0.127c-1.957,0.125-2.919,0.977-2.919,2.318c0,0.885,0.457,2.209,2.24,2.209
		c0.475,0,1.484,0,2.667-1.01l0.017,0.016c0.03,0.805,0.38,0.979,0.993,0.979c0.41,0,0.962-0.127,1.342-0.315l-0.078-0.759h-1.041
		V66.806z M112.562,68.399v1.799c-0.709,0.646-1.437,1.01-2.099,1.01c-1.01,0-1.42-0.441-1.42-1.342c0-0.771,0.505-1.293,1.546-1.34
		L112.562,68.399z M100.811,66.127c0.361-0.362,1.371-0.789,2.004-0.789c1.149,0,1.924,0.631,1.924,2.763
		c0,2.414-0.916,3.153-2.004,3.153c-0.694,0-1.594-0.299-1.924-0.553V66.127z M100.777,65.053l-0.016-0.678h-1.246v10.981h1.277
		v-3.676c0.631,0.441,1.562,0.535,2.162,0.535c2.272,0,3.092-1.83,3.092-4.086c0-2.084-0.678-3.852-2.887-3.852
		c-0.821,0-1.673,0.332-2.304,0.838L100.777,65.053z M96.265,68.272c0,1.389-0.331,2.936-2.004,2.936
		c-1.813,0-2.131-1.404-2.131-2.936c0-1.451,0.427-3.062,2.131-3.062S96.265,66.901,96.265,68.272 M97.607,68.241
		c0-2.02-0.774-4.023-3.348-4.023c-2.523,0-3.471,2.004-3.471,4.055c0,2.084,0.789,3.931,3.313,3.931
		C96.802,72.202,97.607,70.213,97.607,68.241 M86.751,65.401l0.047-1.025h-1.262v7.699h1.294v-5.996
		c0.883-0.094,1.783-0.236,2.666-0.33c0.236-0.301,0.441-0.9,0.441-1.168c0-0.316-0.158-0.395-0.395-0.395
		c-0.789,0-1.925,0.614-2.698,1.278L86.751,65.401z M79.319,72.25c0.536,0,1.578-0.176,2.588-1.074l0.031,0.031l0.016,0.867h1.247
		V64.36c-0.411,0-0.837,0.016-1.263,0.016v5.838c-0.741,0.664-1.657,0.979-2.24,0.979c-1.2,0-1.326-0.646-1.326-1.721v-5.096h-1.277
		v5.412C77.094,70.924,77.22,72.25,79.319,72.25 M75.185,72.075V71.05h-5.491v-4.197h4.418v-0.977h-4.418v-3.582h5.239v-1.012h-6.58
		v10.793H75.185z"/>
</g>
<polygon fill="#9C9E9F" points="358.276,69.034 358.276,74.421 352.508,74.421 352.508,69.034 349.084,69.034 349.084,83.105 
	352.508,83.105 352.508,77.21 358.276,77.21 358.276,83.105 361.654,83.105 361.654,69.034 "/>
<g>
	<path fill="#9C9E9F" d="M376.737,78.035h-3.463l0.991-2.897c0.403-1.184,0.698-2.385,0.717-2.449h0.045
		c0.021,0.064,0.272,1.248,0.698,2.449L376.737,78.035z M372.344,80.738h5.346l0.844,2.367h3.723l-5.537-14.071h-3.276
		l-5.366,14.071h3.444L372.344,80.738z"/>
	<path fill="#9C9E9F" d="M399.912,77.251v-8.217h-3.126v8.452c0,1.941-0.76,3.106-2.703,3.106c-2.095,0-2.834-1.038-2.834-3.256
		v-8.303h-3.423v8.557c0,3.801,2.051,5.765,6.191,5.765C397.906,83.355,399.912,81.228,399.912,77.251"/>
	<path fill="#9C9E9F" d="M416.053,79.047c0-2.554-1.626-3.505-3.487-4.331c-1.499-0.676-2.596-0.947-2.596-1.944
		c0-0.841,0.61-1.266,1.668-1.266c1.12,0,2.22,0.549,2.703,0.844l1.331-2.367c-0.631-0.463-1.878-1.202-4.245-1.202
		c-2.641,0-4.688,1.564-4.688,4.018c0,2.299,1.202,3.396,2.935,4.264c1.647,0.824,3.105,1.078,3.105,2.18
		c0,0.799-0.698,1.393-2.027,1.393c-1.541,0-2.639-0.803-2.96-1.016l-1.393,2.367c0.633,0.504,2.134,1.374,4.457,1.374
		C414.11,83.359,416.053,81.709,416.053,79.047"/>
	<path fill="#9C9E9F" d="M356.374,52.668h-3.463l0.991-2.897c0.399-1.182,0.696-2.388,0.719-2.449h0.041
		c0.022,0.062,0.274,1.245,0.696,2.449L356.374,52.668z M351.979,55.371h5.347l0.842,2.364h3.72l-5.534-14.068h-3.274l-5.368,14.068
		h3.445L351.979,55.371z"/>
	<path fill="#9C9E9F" d="M379.758,51.886v-8.221h-3.127v8.452c0,1.943-0.76,3.106-2.701,3.106c-2.094,0-2.833-1.036-2.833-3.254
		v-8.305h-3.424v8.557c0,3.805,2.05,5.767,6.193,5.767C377.753,57.988,379.758,55.858,379.758,51.886"/>
	<path fill="#9C9E9F" d="M396.113,53.68c0-2.556-1.627-3.508-3.486-4.331c-1.501-0.674-2.599-0.952-2.599-1.943
		c0-0.844,0.612-1.266,1.669-1.266c1.12,0,2.218,0.549,2.703,0.842l1.333-2.365c-0.635-0.464-1.882-1.206-4.249-1.206
		c-2.64,0-4.689,1.562-4.689,4.017c0,2.303,1.206,3.401,2.938,4.265c1.646,0.827,3.103,1.077,3.103,2.179
		c0,0.801-0.694,1.393-2.025,1.393c-1.544,0-2.642-0.803-2.959-1.012l-1.395,2.365c0.633,0.506,2.134,1.37,4.458,1.37
		C394.169,57.988,396.113,56.342,396.113,53.68"/>
	<path fill="#9C9E9F" d="M420.679,43.665h-3.233l-1.626,6.658c-0.274,1.141-0.485,2.511-0.51,2.66h-0.062
		c-0.021-0.129-0.256-1.585-0.549-2.769l-1.626-6.55h-3.341l-1.669,6.57c-0.293,1.143-0.549,2.599-0.567,2.748h-0.043
		c-0.021-0.149-0.233-1.479-0.51-2.621l-1.583-6.697h-3.633l3.782,14.072h3.147l2.027-7.248c0.317-1.161,0.592-2.494,0.612-2.596
		h0.044c0.021,0.103,0.252,1.435,0.549,2.596l1.814,7.248h3.151L420.679,43.665z"/>
	<path fill="#9C9E9F" d="M433.164,52.668h-3.463l0.991-2.897c0.403-1.182,0.698-2.388,0.721-2.449h0.041
		c0.022,0.062,0.272,1.245,0.698,2.449L433.164,52.668z M428.769,55.371h5.347l0.846,2.364h3.716l-5.532-14.068h-3.276
		l-5.367,14.068h3.444L428.769,55.371z"/>
	<path fill="#9C9E9F" d="M457.883,57.735V43.667h-3.088v6.718c0,1.1,0.063,2.115,0.086,2.302h-0.041
		c-0.086-0.147-0.635-1.163-1.542-2.472l-4.565-6.548h-3.442v14.068h3.084v-7.33c0-0.952-0.063-1.9-0.086-1.963h0.041
		c0.045,0.084,0.553,0.95,1.438,2.195l5.01,7.099H457.883z"/>
	<path fill="#9C9E9F" d="M474.907,50.596c0,2.914-1.415,4.438-4.309,4.438h-1.311v-8.662h1.206
		C473.514,46.372,474.907,47.68,474.907,50.596 M478.498,50.512c0-4.058-2.535-6.847-8.049-6.847h-4.585v14.07h4.458
		C475.922,57.735,478.498,54.568,478.498,50.512"/>
</g>
<polygon fill="#9C9E9F" points="494.216,57.735 494.216,54.947 489.041,54.947 489.041,51.802 493.476,51.802 493.476,49.201 
	489.041,49.201 489.041,46.458 494.07,46.458 494.07,43.667 485.663,43.667 485.663,57.735 "/>
<g>
	<path fill="#9C9E9F" d="M508.709,48.018c0,1.141-0.676,1.795-2.095,1.795h-1.479v-3.591h1.355
		C508.033,46.222,508.709,46.836,508.709,48.018 M513.229,57.735l-2.512-3.97c-0.766-1.204-1.292-1.798-1.714-2.093V51.63
		c1.564-0.379,3.065-1.52,3.065-3.823c0-2.703-1.945-4.142-5.369-4.142h-4.987v14.07h3.423v-5.555h0.168
		c0.571,0,0.825,0.104,1.714,1.542l2.494,4.013H513.229z"/>
</g>
<polygon fill="#9C9E9F" points="528.394,57.735 528.394,54.947 523.217,54.947 523.217,51.802 527.655,51.802 527.655,49.201 
	523.217,49.201 523.217,46.458 528.246,46.458 528.246,43.667 519.838,43.667 519.838,57.735 "/>
<g>
	<path fill="#9C9E9F" d="M542.887,48.018c0,1.141-0.68,1.795-2.094,1.795h-1.479v-3.591h1.352
		C542.208,46.222,542.887,46.836,542.887,48.018 M547.405,57.735l-2.513-3.97c-0.762-1.204-1.288-1.798-1.714-2.093V51.63
		c1.564-0.379,3.065-1.52,3.065-3.823c0-2.703-1.941-4.142-5.368-4.142h-4.984v14.07h3.424v-5.555h0.168
		c0.571,0,0.825,0.104,1.71,1.542l2.493,4.013H547.405z"/>
	<path fill="#9C9E9F" d="M358.127,25.228c0,2.916-1.413,4.439-4.309,4.439h-1.311v-8.663h1.204
		C356.732,21.003,358.127,22.312,358.127,25.228 M361.719,25.144c0-4.056-2.535-6.847-8.051-6.847h-4.585V32.37h4.458
		C359.142,32.37,361.719,29.2,361.719,25.144"/>
</g>
<polygon fill="#9C9E9F" points="377.226,32.37 377.226,29.581 372.049,29.581 372.049,26.434 376.485,26.434 376.485,23.833 
	372.049,23.833 372.049,21.089 377.077,21.089 377.077,18.298 368.67,18.298 368.67,32.37 "/>
<g>
	<path fill="#9C9E9F" d="M396.661,26.518v-8.221h-3.127v8.453c0,1.943-0.76,3.106-2.703,3.106c-2.095,0-2.834-1.036-2.834-3.253
		v-8.305h-3.423v8.557c0,3.804,2.051,5.768,6.193,5.768C394.654,32.622,396.661,30.49,396.661,26.518"/>
</g>
<polygon fill="#9C9E9F" points="413.922,21.087 413.922,18.296 402.83,18.296 402.83,21.087 406.653,21.087 406.653,32.368 
	410.08,32.368 410.08,21.087 "/>
<g>
	<path fill="#9C9E9F" d="M428.919,28.313c0-2.558-1.628-3.508-3.487-4.333c-1.5-0.674-2.598-0.952-2.598-1.943
		c0-0.844,0.613-1.266,1.668-1.266c1.12,0,2.218,0.549,2.703,0.842l1.333-2.365c-0.635-0.465-1.882-1.204-4.247-1.204
		c-2.641,0-4.69,1.561-4.69,4.015c0,2.302,1.204,3.401,2.938,4.268c1.646,0.825,3.104,1.077,3.104,2.177
		c0,0.802-0.696,1.392-2.025,1.392c-1.543,0-2.643-0.802-2.96-1.012l-1.393,2.365c0.631,0.506,2.132,1.372,4.457,1.372
		C426.973,32.622,428.919,30.973,428.919,28.313"/>
	<path fill="#9C9E9F" d="M446.914,31.123l-1.395-2.386c-0.698,0.504-1.562,1.055-3.084,1.055c-2.537,0-3.783-2.027-3.783-4.566
		c0-2.468,1.31-4.372,3.718-4.372c1.27,0,2.115,0.338,2.875,0.803l1.501-2.474c-1.12-0.737-2.472-1.139-4.311-1.139
		c-4.903,0-7.397,3.444-7.397,7.269c0,3.844,2.412,7.31,7.332,7.31C444.442,32.624,446.197,31.757,446.914,31.123"/>
</g>
<polygon fill="#9C9E9F" points="466.175,32.37 466.175,18.298 462.796,18.298 462.796,23.686 457.027,23.686 457.027,18.298 
	453.604,18.298 453.604,32.37 457.027,32.37 457.027,26.475 462.796,26.475 462.796,32.37 "/>
<polygon fill="#9C9E9F" points="482.739,32.37 482.739,29.581 477.561,29.581 477.561,26.434 481.996,26.434 481.996,23.833 
	477.561,23.833 477.561,21.089 482.59,21.089 482.59,18.298 474.182,18.298 474.182,32.37 "/>
<g>
	<path fill="#9C9E9F" d="M498.92,28.313c0-2.558-1.628-3.508-3.487-4.333c-1.501-0.674-2.598-0.952-2.598-1.943
		c0-0.844,0.611-1.266,1.668-1.266c1.12,0,2.214,0.549,2.703,0.842l1.333-2.365c-0.635-0.465-1.882-1.204-4.249-1.204
		c-2.639,0-4.688,1.561-4.688,4.015c0,2.302,1.202,3.401,2.938,4.268c1.646,0.825,3.102,1.077,3.102,2.177
		c0,0.802-0.694,1.392-2.026,1.392c-1.542,0-2.64-0.802-2.961-1.012l-1.389,2.365c0.631,0.506,2.128,1.372,4.457,1.372
		C496.974,32.622,498.92,30.973,498.92,28.313"/>
	<path fill="#9C9E9F" d="M353.744,97.292c0,0.773-0.444,1.127-1.449,1.127h-0.844v-2.188h0.903
		C353.271,96.231,353.744,96.557,353.744,97.292 M354.068,101.302c0,0.844-0.59,1.168-1.612,1.168h-1.005v-2.381h1.096
		C353.581,100.089,354.068,100.473,354.068,101.302 M356.48,101.552c0-1.418-0.993-2.188-2.144-2.363v-0.033
		c1.064-0.266,1.744-0.96,1.744-2.273c0-1.882-1.643-2.457-3.461-2.457h-3.521v9.849h3.476
		C354.822,104.273,356.48,103.55,356.48,101.552"/>
	<path fill="#9C9E9F" d="M366.355,97.472c0,0.799-0.473,1.258-1.464,1.258h-1.034v-2.517h0.944
		C365.883,96.213,366.355,96.643,366.355,97.472 M369.52,104.273l-1.758-2.777c-0.534-0.844-0.903-1.259-1.198-1.464v-0.033
		c1.094-0.266,2.143-1.064,2.143-2.677c0-1.894-1.359-2.897-3.756-2.897h-3.49v9.849h2.396v-3.886h0.117
		c0.399,0,0.577,0.07,1.197,1.078l1.745,2.808H369.52z"/>
</g>
<polygon fill="#9C9E9F" points="374.146,94.425 374.146,104.273 380.136,104.273 380.136,102.321 376.513,102.321 376.513,100.118 
	379.62,100.118 379.62,98.3 376.513,98.3 376.513,96.378 380.03,96.378 380.03,94.425 "/>
<g>
	<path fill="#9C9E9F" d="M391.833,104.273l1.449-4.674c0.207-0.68,0.386-1.359,0.399-1.419h0.031
		c0.012,0.06,0.075,0.725,0.161,1.448l0.549,4.645h2.439l-1.346-9.849h-2.322l-1.923,5.888c-0.222,0.679-0.459,1.583-0.474,1.639
		h-0.03c-0.015-0.056-0.25-0.96-0.457-1.639l-1.851-5.888h-2.321l-1.359,9.849h2.143l0.579-4.626
		c0.071-0.652,0.115-1.438,0.115-1.467h0.03c0,0.029,0.194,0.799,0.389,1.419l1.448,4.674H391.833z"/>
</g>
<polygon fill="#9C9E9F" points="401.848,94.425 401.848,104.273 407.837,104.273 407.837,102.321 404.213,102.321 404.213,100.118 
	407.321,100.118 407.321,98.3 404.213,98.3 404.213,96.378 407.735,96.378 407.735,94.425 "/>
<g>
	<path fill="#9C9E9F" d="M417.982,97.472c0,0.799-0.473,1.258-1.466,1.258h-1.034v-2.517h0.948
		C417.51,96.213,417.982,96.643,417.982,97.472 M421.146,104.273l-1.759-2.777c-0.532-0.844-0.901-1.259-1.198-1.464v-0.033
		c1.094-0.266,2.143-1.064,2.143-2.677c0-1.894-1.36-2.897-3.756-2.897h-3.49v9.849h2.396v-3.886h0.119
		c0.4,0,0.575,0.07,1.197,1.078l1.745,2.808H421.146z"/>
</g>
<polygon fill="#9C9E9F" points="432.206,94.425 432.206,98.195 428.171,98.195 428.171,94.425 425.771,94.425 425.771,104.273 
	428.171,104.273 428.171,100.148 432.206,100.148 432.206,104.273 434.571,104.273 434.571,94.425 "/>
<g>
	<path fill="#9C9E9F" d="M445.278,100.724h-2.427l0.695-2.023c0.281-0.83,0.49-1.674,0.504-1.718h0.029
		c0.016,0.044,0.192,0.874,0.489,1.718L445.278,100.724z M442.202,102.62h3.743l0.59,1.653h2.604l-3.875-9.849h-2.292l-3.756,9.849
		h2.408L442.202,102.62z"/>
	<path fill="#9C9E9F" d="M461.676,94.425h-2.394l-1.848,5.604c-0.25,0.739-0.459,1.572-0.474,1.628h-0.03
		c-0.03-0.089-0.239-0.87-0.493-1.628l-1.903-5.604h-2.588l3.797,9.849h2.267L461.676,94.425z"/>
</g>
<polygon fill="#9C9E9F" points="466.275,94.425 466.275,104.273 472.263,104.273 472.263,102.321 468.638,102.321 468.638,100.118 
	471.744,100.118 471.744,98.3 468.638,98.3 468.638,96.378 472.159,96.378 472.159,94.425 "/>
<g>
	<path fill="#9C9E9F" d="M486.327,104.273v-9.849h-2.161v4.704c0,0.766,0.044,1.479,0.06,1.612h-0.03
		c-0.06-0.104-0.444-0.813-1.083-1.732l-3.191-4.584h-2.412v9.849h2.162v-5.13c0-0.668-0.041-1.332-0.06-1.377h0.029
		c0.03,0.06,0.385,0.668,1.004,1.538l3.506,4.969H486.327z"/>
</g>
</svg>
