<?xml version="1.0" encoding="utf-8"?>
<!-- Generator: Adobe Illustrator 16.0.0, SVG Export Plug-In . SVG Version: 6.00 Build 0)  -->
<!DOCTYPE svg PUBLIC "-//W3C//DTD SVG 1.1//EN" "http://www.w3.org/Graphics/SVG/1.1/DTD/svg11.dtd">
<svg version="1.1" id="Ebene_1" xmlns="http://www.w3.org/2000/svg" xmlns:xlink="http://www.w3.org/1999/xlink" x="0px" y="0px"
	 width="167.722px" height="100.33px" viewBox="0 0 167.722 100.33" enable-background="new 0 0 167.722 100.33"
	 xml:space="preserve">
<g>
	<path fill="#9C9E9F" d="M54.345,52.983c-0.646-12.413-7.151-16.508-18.213-15.93c-3.103,0.163-6.933,0.739-10.517,1.674
		L15.447,49.242L12.869,0l-2.603,0.136L0,12.593l4.598,87.738l13.615-0.713l-2.395-45.723c5.122-3.35,10.68-5.493,15.228-5.731
		c7.499-0.393,10.021,3.051,10.431,10.92l2.059,39.205l13.15-0.689L54.345,52.983z"/>
	<path fill="#9C9E9F" d="M167.723,89.194v-5.285c0-1.137-0.174-2.572-2.352-2.572c-0.883,0-2.035,0.426-2.776,0.947
		c-0.396-0.648-1.042-0.932-1.862-0.932c-0.789,0-1.752,0.314-2.604,0.885l-0.063-0.049l-0.016-0.693h-1.246v7.699h1.278v-6.043
		c0.678-0.426,1.529-0.742,2.287-0.742s1.246,0.443,1.246,1.453v5.332h1.278v-5.08c0-0.27-0.015-0.695-0.094-1.041
		c0.583-0.379,1.546-0.68,2.225-0.68c1.183,0,1.404,0.615,1.404,1.721v5.08H167.723z M150.644,89.368
		c0.536,0,1.578-0.174,2.587-1.072l0.032,0.031l0.017,0.867h1.245v-7.715c-0.409,0-0.836,0.016-1.262,0.016v5.838
		c-0.742,0.662-1.657,0.979-2.241,0.979c-1.199,0-1.324-0.648-1.324-1.721v-5.096h-1.279v5.412
		C148.418,88.042,148.545,89.368,150.644,89.368 M143.312,81.321c-2.902,0-3.377,2.666-3.377,4.039c0,2.146,0.68,3.93,3.424,3.93
		c1.026,0,1.957-0.221,2.872-0.711l-0.315-0.82c-0.867,0.363-1.562,0.553-2.461,0.553c-1.721,0-2.209-1.264-2.193-2.699h5.158
		v-0.615C146.42,84.049,146.39,81.321,143.312,81.321 M143.345,82.266c1.42,0,1.86,1.027,1.86,2.51h-3.928
		C141.371,83.465,141.86,82.266,143.345,82.266 M132.459,88.69c0.693,0.395,1.83,0.6,2.744,0.6c1.769,0,3.047-0.664,3.047-2.209
		c0-1.627-1.357-1.99-2.651-2.4c-0.631-0.203-1.642-0.504-1.642-1.166c0-0.852,0.758-1.137,1.562-1.137
		c0.536,0,1.137,0.094,1.926,0.41l0.393-0.9c-0.678-0.408-1.655-0.551-2.303-0.551c-1.547,0-2.793,0.678-2.793,2.162
		c0,1.42,1.262,1.766,2.604,2.24c0.867,0.299,1.656,0.537,1.656,1.355c0,0.932-0.772,1.232-1.75,1.232
		c-0.553,0-1.405-0.08-2.383-0.521L132.459,88.69z M126.766,89.368c0.536,0,1.578-0.174,2.588-1.072l0.031,0.031l0.016,0.867h1.246
		v-7.715c-0.41,0-0.836,0.016-1.262,0.016v5.838c-0.742,0.662-1.657,0.979-2.241,0.979c-1.198,0-1.325-0.648-1.325-1.721v-5.096
		h-1.277v5.412C124.541,88.042,124.666,89.368,126.766,89.368 M122.264,89.194v-5.285c0-1.137-0.173-2.572-2.352-2.572
		c-0.883,0-2.035,0.426-2.776,0.947c-0.394-0.648-1.041-0.932-1.862-0.932c-0.789,0-1.751,0.314-2.604,0.885l-0.062-0.049
		l-0.016-0.693h-1.247v7.699h1.278v-6.043c0.679-0.426,1.531-0.742,2.287-0.742c0.758,0,1.248,0.443,1.248,1.453v5.332h1.277v-5.08
		c0-0.27-0.016-0.695-0.095-1.041c0.584-0.379,1.547-0.68,2.225-0.68c1.183,0,1.404,0.615,1.404,1.721v5.08H122.264z
		 M106.216,81.321c-2.904,0-3.378,2.666-3.378,4.039c0,2.146,0.68,3.93,3.425,3.93c1.026,0,1.957-0.221,2.872-0.711l-0.316-0.82
		c-0.867,0.363-1.562,0.553-2.461,0.553c-1.72,0-2.209-1.264-2.193-2.699h5.16v-0.615C109.324,84.049,109.293,81.321,106.216,81.321
		 M106.246,82.266c1.42,0,1.862,1.027,1.862,2.51h-3.929C104.274,83.465,104.764,82.266,106.246,82.266 M95.361,88.69
		c0.694,0.395,1.83,0.6,2.745,0.6c1.767,0,3.045-0.664,3.045-2.209c0-1.627-1.356-1.99-2.649-2.4
		c-0.633-0.203-1.642-0.504-1.642-1.166c0-0.852,0.757-1.137,1.562-1.137c0.537,0,1.137,0.094,1.926,0.41l0.395-0.9
		c-0.679-0.408-1.658-0.551-2.305-0.551c-1.546,0-2.792,0.678-2.792,2.162c0,1.42,1.263,1.766,2.603,2.24
		c0.869,0.299,1.658,0.537,1.658,1.355c0,0.932-0.773,1.232-1.752,1.232c-0.553,0-1.404-0.08-2.383-0.521L95.361,88.69z
		 M93.55,89.194v-5.396c0-1.15-0.158-2.477-2.257-2.477c-0.741,0-1.814,0.314-2.683,0.867l-0.047-0.031l-0.017-0.662h-1.262v7.699
		h1.295v-6.059c0.662-0.379,1.625-0.758,2.351-0.758c1.215,0,1.341,0.662,1.341,1.736v5.08H93.55z M84.447,83.924
		c0-1.895-0.978-2.557-2.603-2.557c-0.963,0-2.099,0.221-2.966,0.615l0.284,0.869c0.773-0.27,1.625-0.428,2.382-0.428
		c1.278,0,1.657,0.475,1.657,1.752v0.488l-1.972,0.127c-1.957,0.127-2.92,0.979-2.92,2.32c0,0.883,0.458,2.209,2.241,2.209
		c0.473,0,1.483,0,2.667-1.01l0.015,0.016c0.032,0.805,0.379,0.977,0.995,0.977c0.41,0,0.962-0.125,1.341-0.314l-0.079-0.758h-1.042
		V83.924z M83.201,85.518v1.799c-0.71,0.646-1.436,1.01-2.099,1.01c-1.01,0-1.42-0.443-1.42-1.342c0-0.773,0.505-1.293,1.547-1.34
		L83.201,85.518z M76.132,89.194V78.401h-1.373v4.545h-5.049c0-1.531,0.016-3.014,0.016-4.545h-1.373v10.793h1.373
		c0-1.721-0.016-3.439-0.016-5.16h5.049v5.16H76.132z"/>
	<path fill="#9C9E9F" d="M151.347,71.571c0.694,0.395,1.831,0.6,2.746,0.6c1.767,0,3.045-0.662,3.045-2.209
		c0-1.625-1.356-1.988-2.651-2.398c-0.631-0.205-1.641-0.506-1.641-1.168c0-0.852,0.758-1.135,1.562-1.135
		c0.537,0,1.136,0.094,1.925,0.41l0.396-0.9c-0.68-0.41-1.658-0.553-2.305-0.553c-1.546,0-2.793,0.68-2.793,2.162
		c0,1.42,1.262,1.768,2.604,2.24c0.869,0.301,1.656,0.537,1.656,1.357c0,0.93-0.773,1.23-1.751,1.23
		c-0.552,0-1.403-0.078-2.383-0.521L151.347,71.571z M146.74,64.202c-2.903,0-3.377,2.666-3.377,4.039
		c0,2.146,0.679,3.93,3.424,3.93c1.025,0,1.957-0.221,2.871-0.709l-0.315-0.822c-0.866,0.363-1.562,0.553-2.461,0.553
		c-1.72,0-2.209-1.262-2.192-2.699h5.158v-0.613C149.848,66.932,149.816,64.202,146.74,64.202 M146.771,65.149
		c1.42,0,1.861,1.025,1.861,2.508h-3.929C144.799,66.348,145.288,65.149,146.771,65.149 M136.451,64.991l0.049-1.641v-2.494h-1.279
		v11.219h1.294v-6.059c0.663-0.379,1.626-0.756,2.351-0.756c1.231,0,1.343,0.662,1.343,1.734v5.08h1.278V66.68
		c0-1.152-0.111-2.479-2.209-2.479c-0.695,0-1.769,0.363-2.699,0.852L136.451,64.991z M128.8,68.194c0-1.783,0.82-2.951,2.304-2.951
		c0.504,0,1.072,0.031,1.814,0.285l0.3-0.932c-0.805-0.332-1.53-0.395-2.226-0.395c-2.902,0-3.518,2.479-3.518,4.119
		c0,2.193,0.867,3.85,3.439,3.85c1.025,0,2.02-0.283,2.682-0.646l-0.347-0.852c-0.772,0.314-1.42,0.488-2.226,0.488
		C129.32,71.161,128.8,69.899,128.8,68.194 M120.137,71.571c0.694,0.395,1.83,0.6,2.746,0.6c1.768,0,3.045-0.662,3.045-2.209
		c0-1.625-1.357-1.988-2.65-2.398c-0.631-0.205-1.642-0.506-1.642-1.168c0-0.852,0.757-1.135,1.562-1.135
		c0.537,0,1.137,0.094,1.926,0.41l0.395-0.9c-0.679-0.41-1.656-0.553-2.304-0.553c-1.546,0-2.793,0.68-2.793,2.162
		c0,1.42,1.263,1.768,2.604,2.24c0.867,0.301,1.655,0.537,1.655,1.357c0,0.93-0.772,1.23-1.751,1.23
		c-0.552,0-1.404-0.078-2.383-0.521L120.137,71.571z M118.417,62.356c0-0.473-0.394-0.852-0.868-0.852
		c-0.441,0-0.836,0.379-0.836,0.852c0,0.441,0.395,0.836,0.836,0.836C118.023,63.192,118.417,62.797,118.417,62.356 M118.181,64.375
		h-1.278v7.699h1.278V64.375z M110.307,62.561c0-0.41-0.3-0.695-0.742-0.695c-0.363,0-0.709,0.301-0.709,0.695
		s0.315,0.695,0.726,0.695C110.007,63.256,110.307,62.956,110.307,62.561 M113.273,62.561c0-0.41-0.332-0.695-0.773-0.695
		c-0.363,0-0.678,0.301-0.678,0.695s0.283,0.695,0.678,0.695C112.941,63.256,113.273,62.956,113.273,62.561 M113.811,66.805
		c0-1.895-0.979-2.555-2.604-2.555c-0.962,0-2.099,0.221-2.966,0.613l0.283,0.869c0.773-0.268,1.625-0.426,2.383-0.426
		c1.279,0,1.656,0.473,1.656,1.75v0.49l-1.972,0.127c-1.957,0.125-2.919,0.977-2.919,2.318c0,0.885,0.457,2.209,2.24,2.209
		c0.474,0,1.484,0,2.667-1.01l0.016,0.016c0.031,0.805,0.38,0.979,0.994,0.979c0.41,0,0.962-0.127,1.341-0.316l-0.078-0.758h-1.041
		V66.805z M112.562,68.399v1.799c-0.709,0.646-1.436,1.01-2.098,1.01c-1.01,0-1.42-0.441-1.42-1.342c0-0.771,0.505-1.293,1.546-1.34
		L112.562,68.399z M100.811,66.127c0.362-0.363,1.371-0.789,2.004-0.789c1.15,0,1.924,0.631,1.924,2.762
		c0,2.414-0.916,3.154-2.004,3.154c-0.694,0-1.594-0.299-1.924-0.553V66.127z M100.777,65.053l-0.016-0.678h-1.246v10.982h1.278
		v-3.676c0.631,0.441,1.562,0.535,2.162,0.535c2.272,0,3.092-1.83,3.092-4.086c0-2.084-0.678-3.852-2.887-3.852
		c-0.821,0-1.673,0.332-2.304,0.838L100.777,65.053z M96.265,68.272c0,1.389-0.331,2.936-2.004,2.936
		c-1.813,0-2.13-1.404-2.13-2.936c0-1.451,0.426-3.061,2.13-3.061C95.966,65.211,96.265,66.901,96.265,68.272 M97.607,68.241
		c0-2.02-0.774-4.023-3.347-4.023c-2.524,0-3.471,2.004-3.471,4.055c0,2.084,0.789,3.93,3.313,3.93
		C96.802,72.202,97.607,70.213,97.607,68.241 M86.751,65.401l0.047-1.025h-1.262v7.699h1.294v-5.996
		c0.883-0.094,1.783-0.236,2.666-0.33c0.236-0.301,0.441-0.9,0.441-1.168c0-0.316-0.158-0.395-0.394-0.395
		c-0.789,0-1.925,0.615-2.699,1.279L86.751,65.401z M79.319,72.25c0.536,0,1.578-0.176,2.588-1.074l0.031,0.031l0.016,0.867h1.247
		V64.36c-0.411,0-0.837,0.016-1.263,0.016v5.838c-0.741,0.664-1.657,0.979-2.24,0.979c-1.2,0-1.326-0.646-1.326-1.721v-5.096h-1.278
		v5.412C77.094,70.924,77.22,72.25,79.319,72.25 M75.185,72.075v-1.025h-5.491v-4.197h4.418v-0.977h-4.418v-3.582h5.239v-1.012
		h-6.58v10.793H75.185z"/>
</g>
</svg>
