<?xml version="1.0" encoding="utf-8"?>
<!-- Generator: Adobe Illustrator 16.0.0, SVG Export Plug-In . SVG Version: 6.00 Build 0)  -->
<!DOCTYPE svg PUBLIC "-//W3C//DTD SVG 1.1//EN" "http://www.w3.org/Graphics/SVG/1.1/DTD/svg11.dtd">
<svg version="1.1"
	 id="svg2" xmlns:dc="http://purl.org/dc/elements/1.1/" xmlns:cc="http://creativecommons.org/ns#" xmlns:rdf="http://www.w3.org/1999/02/22-rdf-syntax-ns#" xmlns:svg="http://www.w3.org/2000/svg" xmlns:sodipodi="http://sodipodi.sourceforge.net/DTD/sodipodi-0.dtd" xmlns:inkscape="http://www.inkscape.org/namespaces/inkscape" sodipodi:docname="Logo_Franckh-Kosmos.svg" inkscape:version="0.48.2 r9819"
	 xmlns="http://www.w3.org/2000/svg" xmlns:xlink="http://www.w3.org/1999/xlink" x="0px" y="0px" width="841.9px" height="281.6px"
	 viewBox="0 0 841.9 281.6" enable-background="new 0 0 841.9 281.6" xml:space="preserve">
<sodipodi:namedview  inkscape:cy="140.80003" inkscape:cx="420.95003" inkscape:zoom="0.28031832" fit-margin-left="0" fit-margin-top="0" showgrid="false" guidetolerance="10" gridtolerance="10" objecttolerance="10" bordercolor="#666666" pagecolor="#ffffff" borderopacity="1" id="namedview9" inkscape:current-layer="svg2" inkscape:window-maximized="0" inkscape:window-y="22" inkscape:window-x="0" fit-margin-bottom="0" fit-margin-right="0" inkscape:window-height="742" inkscape:pageshadow="2" inkscape:window-width="1285" inkscape:pageopacity="0">
	</sodipodi:namedview>
<g>
	<path fill="#89898C" d="M227.9,97.1c-19.4,0-28.9,18-28.9,39.3c0,22,9.601,39.301,28.9,39.301S257,158.4,257,136.4
		C257,115.1,247.2,97.1,227.9,97.1z"/>
	<path fill="#89898C" d="M0,0v281.6h841.9V0H0z M175.9,196.2l-0.085-0.101h-34.514l-42.7-53v53H73V76.6H98.6v52l42.7-52h33.1
		l-50.5,58.3l51.915,61.2h0.085V196.2z M227.6,198.9c-33.101,0-55.5-26.199-55.5-62.5c0-36.5,22.899-62.8,56-62.8
		c33.1,0,55.699,26.3,55.699,62.8C283.8,172.6,260.7,198.9,227.6,198.9z M344.501,198.9c-19.4,0-38.7-9-48.501-22.8l17.301-16.5
		c9,10.5,19.3,16.3,31.1,16.3c13.8,0,20.101-5.5,20.101-13.3c0-25.2-64.301-6.5-64.301-54.5c0-20,17.101-34.5,42.2-34.5
		c20.5,0,33.601,7.8,45.4,19.5l-17.8,16.5c-7-7-16.5-14.3-27.601-14.3c-11.8,0-16.6,5.5-16.6,11.8c0,24.7,64,6.5,64,54
		C389.801,182.4,374.001,198.9,344.501,198.9z M537.7,196.2l-0.009-0.101h-25.69l-4.801-67.5l-35.899,71l-35.9-72.3l-5.5,68.8
		h-24.899l11.1-119.5h22.6l32.7,68.5l32.4-68.5h23.3l10.591,119.5h0.009V196.2z M607.801,198.9c-33.2,0-55.5-26.199-55.5-62.5
		c0-36.5,22.8-62.8,56-62.8c33.1,0,55.7,26.3,55.7,62.8C664.001,172.6,640.9,198.9,607.801,198.9z M723.6,198.9
		c-19.6,0-38.7-9-48.5-22.8l17.3-16.5c9,10.5,19.3,16.3,31.101,16.3c13.5,0,19.8-5.5,19.8-13.3c0-25.2-64-6.5-64-54.5
		c0-20,17-34.5,41.899-34.5c20.801,0,33.9,7.8,45.7,19.5l-18.1,16.5c-6.8-7-16.5-14.3-27.601-14.3c-11.8,0-16.6,5.5-16.6,11.8
		c0,24.7,64.3,6.5,64.3,54C768.9,182.4,753.1,198.9,723.6,198.9z"/>
	<path fill="#89898C" d="M608.001,96.6c-19.4,0-28.9,18.5-28.9,39.8c0,22,9.6,39.801,28.9,39.801c19.3,0,29.1-17.801,29.1-39.801
		C637.1,115.1,627.301,96.6,608.001,96.6z"/>
</g>
</svg>
