<?xml version="1.0" encoding="utf-8"?>
<!-- Generator: Adobe Illustrator 16.0.0, SVG Export Plug-In . SVG Version: 6.00 Build 0)  -->
<!DOCTYPE svg PUBLIC "-//W3C//DTD SVG 1.1//EN" "http://www.w3.org/Graphics/SVG/1.1/DTD/svg11.dtd">
<svg version="1.1" id="Ebene_1" xmlns="http://www.w3.org/2000/svg" xmlns:xlink="http://www.w3.org/1999/xlink" x="0px" y="0px"
	 width="997.642px" height="211.695px" viewBox="0 0 997.642 211.695" enable-background="new 0 0 997.642 211.695"
	 xml:space="preserve">
<g id="kBXHZe_1_">
	<g>
		<path fill-rule="evenodd" clip-rule="evenodd" fill="#9C9E9F" d="M0,211.281c5.39-15.42,10.372-29.867,15.593-44.227
			c0.396-1.089,2.449-2.144,3.787-2.219c4.984-0.279,9.992-0.158,14.99-0.16c33.827-0.004,67.653,0.004,101.479-0.004
			c7.463-0.002,8.561-0.811,11.39-7.902c1.974-4.947,3.937-9.9,6.059-14.785c1.711-3.939,0.104-5.672-3.713-6.052
			c-1.818-0.181-3.66-0.171-5.491-0.171c-22.829-0.007-45.657,0.011-68.486-0.01c-2.83-0.003-5.665-0.107-8.488-0.306
			c-18.648-1.312-29.29-16.695-23.343-34.483c5.54-16.569,11.71-32.929,17.691-49.349c2.106-5.782,4.211-11.589,6.773-17.176
			c5.833-12.721,16.662-18.498,29.884-20.585c2.452-0.387,4.986-0.353,7.482-0.354c46.824-0.02,93.647-0.016,140.471-0.017
			c0.976,0,1.952,0,3.42,0c-0.297,1.465-0.395,2.546-0.737,3.543c-4.331,12.59-8.824,25.127-12.974,37.776
			c-1.195,3.644-3.035,4.748-6.808,4.732c-34.992-0.142-69.985-0.084-104.979-0.081c-8.591,0.001-8.794,0.127-12.172,8.113
			c-1.881,4.446-3.765,8.892-5.536,13.382c-2.376,6.025-1.079,7.988,5.412,8c23.162,0.044,46.325-0.092,69.485,0.105
			c5.282,0.045,10.71,0.556,15.803,1.881c14.209,3.698,22.055,16.243,18.865,30.564c-1.764,7.914-4.676,15.596-7.387,23.271
			c-4.434,12.557-9.115,25.026-13.712,37.525c-7.037,19.127-20.917,29.004-41.448,29.047c-37.659,0.08-75.317-0.035-112.976-0.062
			c-11.498-0.01-22.996,0-34.493,0C4.204,211.281,2.566,211.281,0,211.281z"/>
		<path fill-rule="evenodd" clip-rule="evenodd" fill="#9C9E9F" d="M612.003,83.333c3.103,0.162,4.904,0.336,6.705,0.338
			c22.327,0.021,44.655-0.07,66.98,0.1c3.956,0.03,5.945-1.213,7.272-5.013c7.022-20.107,14.382-40.097,21.407-60.204
			c1.308-3.742,3.132-5.106,7.17-5.043c15.658,0.243,31.322,0.093,46.984,0.117c1.437,0.002,2.873,0.202,4.997,0.361
			c-3.305,9.09-6.402,17.656-9.532,26.211c-20.241,55.331-40.531,110.644-60.647,166.021c-1.499,4.128-3.511,5.554-7.915,5.47
			c-15.156-0.289-30.322-0.123-45.484-0.131c-1.597,0-3.194,0-5.684,0c10.51-27.668,20.696-54.486,31.178-82.079
			c-2.702-0.157-4.46-0.347-6.218-0.348c-22.66-0.017-45.321,0.124-67.979-0.118c-4.366-0.047-6.1,1.643-7.465,5.428
			c-8.638,23.953-17.49,47.828-26.203,71.754c-1.04,2.855-2.14,4.996-5.805,4.949c-16.65-0.215-33.304-0.238-49.956-0.355
			c-0.466-0.002-0.929-0.271-1.984-0.6c1.871-5.361,3.649-10.666,5.568-15.92c21.354-58.463,42.768-116.904,64.014-175.407
			c1.501-4.132,3.55-5.55,7.95-5.465c14.656,0.283,29.322,0.093,43.984,0.117c1.947,0.003,3.895,0.201,6.867,0.366
			C629.417,37.182,620.893,59.774,612.003,83.333z"/>
		<path fill-rule="evenodd" clip-rule="evenodd" fill="#9C9E9F" d="M877.591,13.936c-18.237,50.424-36.21,100.117-54.527,150.759
			c43.801,0,86.646,0,129.987,0c-0.351,1.865-0.403,2.992-0.775,4c-4.84,13.117-9.63,26.256-14.724,39.275
			c-0.594,1.516-2.923,3.354-4.452,3.357c-60.993,0.167-121.987,0.141-182.981,0.12c-0.806,0-1.611-0.238-2.965-0.452
			c0.429-1.593,0.694-2.998,1.179-4.324c22.898-62.701,45.85-125.383,68.646-188.121c1.371-3.775,3.202-5.08,7.188-5.028
			c16.162,0.212,32.329,0.083,48.494,0.1C873.969,13.625,875.278,13.784,877.591,13.936z"/>
		<path fill-rule="evenodd" clip-rule="evenodd" fill="#9C9E9F" d="M260.017,210.885c18.374-50.278,36.448-99.735,54.872-150.146
			c-21.179,0-41.356,0-62.188,0c0.436-2.002,0.565-3.242,0.974-4.383c4.547-12.686,9.249-25.318,13.647-38.055
			c1.311-3.796,3.403-4.928,7.343-4.92c58.629,0.127,117.259,0.094,175.889,0.115c1.796,0,3.593,0.172,6.207,0.305
			c-0.576,2.034-0.901,3.568-1.439,5.024c-4.501,12.171-9.188,24.277-13.474,36.522c-1.173,3.352-2.906,4.188-6.191,4.166
			c-18.654-0.127-37.312,0.078-55.963-0.162c-4.284-0.055-6.089,1.489-7.493,5.374c-17.024,47.094-34.185,94.14-51.465,141.14
			c-0.719,1.959-2.929,4.775-4.487,4.803C297.813,211.004,279.368,210.885,260.017,210.885z"/>
		<path fill-rule="evenodd" clip-rule="evenodd" fill="#9C9E9F" d="M405.008,211.48c5.19-14.059,10.023-27.137,14.848-40.218
			c18.715-50.747,37.469-101.479,56.062-152.27c1.466-4.003,3.318-5.679,7.791-5.612c16.489,0.246,32.986,0.044,49.48,0.029
			c0.615,0,1.23,0.183,2.295,0.351c-5.2,14.331-10.281,28.376-15.393,42.411c-18.165,49.883-36.393,99.744-54.417,149.678
			c-1.546,4.281-3.529,5.842-8.178,5.746c-15.488-0.318-30.987-0.117-46.482-0.115C409.373,211.48,407.731,211.48,405.008,211.48z"
			/>
		<path fill-rule="evenodd" clip-rule="evenodd" fill="#9C9E9F" d="M964.496,65.342c-18.298,0.056-33.175-14.317-33.249-32.122
			C931.17,14.821,945.729,0.057,964.001,0c18.489-0.058,33.671,14.565,33.641,32.399C997.611,50.521,982.753,65.287,964.496,65.342z
			 M964.722,4.25c-16.126-0.049-29.289,12.744-29.279,28.458c0.009,15.274,13.269,28.657,28.639,28.906
			c15.202,0.247,29.257-13.54,29.423-28.863C993.671,17.395,980.446,4.299,964.722,4.25z"/>
		<path fill-rule="evenodd" clip-rule="evenodd" fill="#9C9E9F" d="M970.662,32.408c2.327,5.062,4.655,10.125,6.982,15.187
			c-0.438,0.442-0.877,0.883-1.315,1.325c-1.53-1.159-3.565-2.013-4.486-3.54c-1.967-3.26-3.557-6.792-4.928-10.355
			c-1.431-3.718-4.464-4.231-7.268-3.157c-1.4,0.538-2.329,3.425-2.652,5.384c-0.455,2.76,0.032,5.666-0.273,8.466
			c-0.101,0.925-1.408,1.72-2.163,2.574c-0.645-0.931-1.836-1.855-1.848-2.793c-0.104-8.828-0.146-17.663,0.178-26.482
			c0.05-1.352,1.98-3.681,3.159-3.758c4.452-0.291,8.971-0.024,13.433,0.388c3.898,0.36,7.117,2.11,7.942,6.366
			c0.818,4.223-1.279,6.992-4.934,8.835C971.924,31.134,971.494,31.685,970.662,32.408z M963.478,18.271
			c-2.799,0.319-6.559-1.283-6.641,4.049c-0.087,5.633,0.505,6.438,6.532,6.341c6.775-0.11,9.948-1.812,9.436-5.443
			C972.01,17.592,967.442,18.396,963.478,18.271z"/>
	</g>
</g>
</svg>
