<?xml version="1.0" encoding="utf-8"?>
<!-- Generator: Adobe Illustrator 16.0.0, SVG Export Plug-In . SVG Version: 6.00 Build 0)  -->
<!DOCTYPE svg PUBLIC "-//W3C//DTD SVG 1.1//EN" "http://www.w3.org/Graphics/SVG/1.1/DTD/svg11.dtd">
<svg version="1.1" id="Ebene_1" xmlns="http://www.w3.org/2000/svg" xmlns:xlink="http://www.w3.org/1999/xlink" x="0px" y="0px"
	 width="465.068px" height="138.57px" viewBox="0 0 465.068 138.57" enable-background="new 0 0 465.068 138.57"
	 xml:space="preserve">
<g id="mrF1R8_1_">
	<g>
		<path fill-rule="evenodd" clip-rule="evenodd" fill="#989898" d="M329.984,91.722c0.036-0.636,0.103-1.272,0.104-1.908
			c0.006-10.129,0.004-20.257,0.005-30.386c0.001-1.704,0.006-1.707,1.664-1.707c7.729-0.001,15.457,0.027,23.186-0.028
			c1.271-0.009,1.566,0.416,1.565,1.612c-0.029,24.813-0.021,49.626-0.023,74.439c0,1.643-0.007,1.646-1.602,1.646
			c-7.892,0.001-15.783-0.014-23.674,0.02c-0.904,0.003-1.496-0.283-2.069-0.978c-8.924-10.825-17.872-21.63-26.818-32.438
			c-0.223-0.27-0.478-0.514-0.958-1.025c-0.064,0.807-0.138,1.298-0.139,1.79c-0.006,10.291-0.004,20.582-0.005,30.873
			c0,1.757-0.002,1.758-1.697,1.758c-7.606,0.001-15.214-0.023-22.819,0.026c-1.191,0.008-1.509-0.364-1.507-1.523
			c0.028-24.895,0.028-49.789-0.001-74.683c-0.001-1.17,0.333-1.523,1.515-1.516c7.81,0.049,15.62,0.034,23.43,0.012
			c0.833-0.002,1.411,0.2,1.976,0.886c8.918,10.831,17.869,21.634,26.814,32.441c0.227,0.274,0.473,0.533,0.709,0.799
			C329.754,91.796,329.869,91.759,329.984,91.722z"/>
		<path fill-rule="evenodd" clip-rule="evenodd" fill="#989898" d="M179.645,104.999c0,0.469,0,0.938,0,1.407
			c0,9.152-0.024,18.305,0.028,27.457c0.008,1.262-0.374,1.562-1.591,1.555c-8.786-0.05-17.572-0.048-26.358-0.001
			c-1.187,0.006-1.508-0.354-1.506-1.519c0.029-24.894,0.029-49.788,0-74.683c-0.001-1.16,0.311-1.527,1.503-1.521
			c8.786,0.048,17.572,0.049,26.358-0.001c1.212-0.007,1.603,0.285,1.595,1.551c-0.057,8.42-0.029,16.841-0.029,25.261
			c0,0.467,0,0.934,0,1.4c0.106,0.041,0.212,0.081,0.318,0.122c0.239-0.23,0.505-0.438,0.714-0.693
			c7.237-8.842,14.479-17.681,21.685-26.549c0.629-0.773,1.266-1.089,2.26-1.085c8.583,0.035,17.166,0.021,25.748,0.021
			c0.396,0,0.792,0,1.48,0c-1.607,1.951-3.039,3.694-4.475,5.434c-8.31,10.066-16.606,20.145-24.954,30.18
			c-0.753,0.905-0.729,1.462-0.048,2.369c9.666,12.878,19.293,25.784,28.929,38.684c0.193,0.259,0.371,0.528,0.655,0.935
			c-0.51,0.028-0.891,0.067-1.272,0.067c-8.908,0.003-17.816-0.016-26.725,0.027c-1.023,0.004-1.625-0.358-2.205-1.149
			c-6.874-9.38-13.776-18.738-20.673-28.101c-0.326-0.443-0.671-0.874-1.007-1.311C179.932,104.903,179.788,104.951,179.645,104.999
			z"/>
		<path fill-rule="evenodd" clip-rule="evenodd" fill="#989898" d="M435.773,80.008c-2.222-1.131-4.145-2.092-6.051-3.084
			c-6.785-3.533-13.959-3.912-21.226-2.21c-8.948,2.096-14.235,8.122-16.965,16.683c-1.565,4.913-1.698,9.791-0.065,14.708
			c3.249,9.786,11.567,13.876,21.436,11.147c1.295-0.358,1.887-0.922,1.783-2.354c-0.135-1.861-0.088-3.743-0.013-5.611
			c0.047-1.154-0.419-1.485-1.503-1.46c-2.277,0.056-4.558-0.015-6.835,0.03c-0.93,0.019-1.313-0.278-1.308-1.251
			c0.029-5.33,0.026-10.66,0.002-15.99c-0.004-0.912,0.357-1.185,1.238-1.184c10.416,0.021,20.832,0.021,31.248,0.001
			c0.823-0.001,1.154,0.233,1.153,1.106c-0.021,12.735-0.009,25.471-0.038,38.206c0,0.411-0.238,1.037-0.554,1.199
			c-3.466,1.783-6.829,3.935-10.5,5.113c-4.486,1.44-9.214,2.221-13.889,2.956c-3.069,0.483-6.246,0.66-9.349,0.497
			c-11.831-0.62-22.438-4.424-31.011-12.881c-5.525-5.45-8.712-12.206-10.095-19.787c-1.467-8.041-1.16-16.024,1.473-23.812
			c3.817-11.295,11.429-19.007,22.48-23.355c6.264-2.464,12.779-3.654,19.511-3.653c3.336,0,6.676-0.078,10.009,0.035
			c5.806,0.197,11.21,2.025,16.568,4.129c1.994,0.783,2.623,1.815,2.553,3.923c-0.169,5.08-0.055,10.17-0.055,15.256
			C435.773,78.837,435.773,79.31,435.773,80.008z"/>
		<path fill-rule="evenodd" clip-rule="evenodd" fill="#989898" d="M24.3,57.721c0.653,0,1.052,0,1.451,0
			c8.218,0,16.435,0.019,24.652-0.024c1.053-0.006,1.564,0.292,1.956,1.307c4.385,11.366,8.822,22.712,13.252,34.062
			c0.155,0.398,0.367,0.774,0.689,1.444c0.325-0.753,0.545-1.21,0.724-1.684c4.276-11.276,8.558-22.551,12.8-33.841
			c0.354-0.939,0.794-1.296,1.836-1.29c8.339,0.047,16.679,0.025,25.018,0.028c0.429,0,0.856,0.036,1.495,0.064
			c-0.763,1.91-1.44,3.633-2.135,5.348c-9.481,23.416-18.962,46.831-28.453,70.243c-0.999,2.464-0.524,1.996-2.924,2.005
			c-6.672,0.024-13.344-0.026-20.015,0.04c-1.218,0.012-1.779-0.361-2.198-1.499c-6.857-18.634-13.756-37.253-20.647-55.873
			c-2.283-6.17-4.578-12.335-6.864-18.503C24.742,59.023,24.568,58.492,24.3,57.721z"/>
		<path fill-rule="evenodd" clip-rule="evenodd" fill="#989898" d="M66.655,51.157c-14.156,0-28.313,0-42.47-0.001
			c-1.613,0-1.698-0.009-1.561-1.604c0.686-7.955,3.125-15.326,7.557-21.993c5.107-7.685,12.045-13.367,19.891-18.04
			c4.972-2.962,10.221-5.345,15.619-7.402c0.55-0.209,1.311-0.247,1.853-0.043c9.531,3.596,18.499,8.212,26.259,14.918
			c8.928,7.715,14.705,17.248,16.508,29.025c0.203,1.32,0.303,2.656,0.48,3.98c0.127,0.942-0.294,1.197-1.179,1.174
			c-1.87-0.05-3.742-0.015-5.613-0.015C91.551,51.157,79.104,51.157,66.655,51.157z"/>
		<path fill-rule="evenodd" clip-rule="evenodd" fill="#989898" d="M110.958,96.566c0-12.321,0-24.643,0.001-36.964
			c0-1.882,0-1.882,1.938-1.882c8.662,0,17.323,0.021,25.984-0.026c1.19-0.006,1.506,0.358,1.504,1.52
			c-0.029,24.887-0.028,49.774-0.001,74.661c0.001,1.131-0.259,1.55-1.479,1.543c-8.824-0.05-17.649-0.049-26.473-0.001
			c-1.194,0.007-1.5-0.361-1.496-1.52C110.973,121.454,110.958,109.01,110.958,96.566z"/>
		<path fill-rule="evenodd" clip-rule="evenodd" fill="#989898" d="M234.937,96.555c0-12.367-0.001-24.735,0-37.103
			c0.001-1.73,0.003-1.731,1.739-1.731c8.665-0.001,17.331,0.02,25.996-0.025c1.141-0.006,1.436,0.337,1.435,1.453
			c-0.029,24.938-0.029,49.877,0,74.815c0.001,1.118-0.297,1.458-1.436,1.452c-8.747-0.045-17.494-0.046-26.24,0
			c-1.18,0.006-1.521-0.342-1.517-1.514C234.95,121.453,234.937,109.004,234.937,96.555z"/>
		<path fill-rule="evenodd" clip-rule="evenodd" fill="#989898" d="M18.094,43.314c-1.35-1.325-2.639-2.342-3.623-3.597
			C8.19,31.709,3.45,22.859,0.59,13.082c-1.048-3.58-0.608-7.26,0.598-10.783c0.869-2.538,2.775-3.066,4.648-1.124
			c2.25,2.335,4.152,5.001,6.332,7.408c2.643,2.917,5.282,5.865,8.189,8.506c1.677,1.524,3.873,2.48,5.851,3.667
			c0.555,0.332,1.197,0.522,1.739,0.87c1.297,0.83,1.662,2.226,0.512,3.168c-5.44,4.46-7.165,10.978-9.717,17.046
			C18.587,42.208,18.421,42.571,18.094,43.314z"/>
		<path fill-rule="evenodd" clip-rule="evenodd" fill="#989898" d="M114.874,42.983c-0.9-2.257-1.704-4.558-2.725-6.759
			c-1.208-2.609-2.482-5.205-3.968-7.661c-0.758-1.251-2.032-2.193-3.09-3.258c-1.527-1.539-1.45-3.126,0.514-3.886
			c6.719-2.598,11.203-7.783,15.613-13.086c1.689-2.032,3.312-4.121,5.033-6.127c1.002-1.169,2.092-2.521,3.868-2.029
			c1.638,0.453,1.956,2.085,2.288,3.493c1.064,4.508,0.749,8.903-0.986,13.247c-3.137,7.853-6.92,15.337-12.112,22.045
			c-1.184,1.529-2.572,2.899-3.867,4.343C115.253,43.198,115.063,43.091,114.874,42.983z"/>
		<path fill-rule="evenodd" clip-rule="evenodd" fill="#989898" d="M465.053,60.565c0.315,5.31-4.322,10.977-10.94,11.04
			c-6.029,0.057-11.146-5.11-11.107-11.108c0.04-5.985,5.068-11.093,11.057-11.05C460.688,49.495,465.355,55.081,465.053,60.565z
			 M444.985,60.518c-0.005,5.026,4.13,9.161,9.146,9.143c4.936-0.019,9.098-4.175,9.109-9.097c0.012-4.916-4.151-9.116-9.064-9.146
			C449.138,51.388,444.991,55.493,444.985,60.518z"/>
		<path fill-rule="evenodd" clip-rule="evenodd" fill="#989898" d="M456.346,60.878c1.064,1.761,2.143,3.545,3.248,5.375
			c-2.247,0.709-2.968,0.425-3.867-1.345c-0.46-0.905-0.889-1.836-1.447-2.678c-0.314-0.477-0.863-0.798-1.307-1.189
			c-0.141,0.07-0.282,0.141-0.423,0.212c0,1.153,0,2.306,0,3.459c-0.001,1.827-0.001,1.827-1.505,1.825
			c-1.449-0.002-1.449-0.002-1.449-1.88c0-3.051,0.03-6.102-0.019-9.15c-0.015-0.952,0.281-1.32,1.25-1.274
			c1.543,0.072,3.095-0.021,4.634,0.088c2.782,0.196,4.36,2.733,2.971,4.845C457.934,59.921,456.979,60.375,456.346,60.878z
			 M452.514,57.604c0.247,0.672-0.518,1.87,1.039,1.812c1.328-0.049,2.145-0.71,2.144-1.785c0-1.104-0.851-1.764-2.29-1.742
			C452.041,55.909,452.757,56.993,452.514,57.604z"/>
	</g>
</g>
</svg>
