<?xml version="1.0" encoding="utf-8"?>
<!-- Generator: Adobe Illustrator 16.0.0, SVG Export Plug-In . SVG Version: 6.00 Build 0)  -->
<!DOCTYPE svg PUBLIC "-//W3C//DTD SVG 1.1//EN" "http://www.w3.org/Graphics/SVG/1.1/DTD/svg11.dtd">
<svg version="1.1" id="Ebene_1" xmlns="http://www.w3.org/2000/svg" xmlns:xlink="http://www.w3.org/1999/xlink" x="0px" y="0px"
	 width="322.732px" height="170.042px" viewBox="215.719 -211.636 322.732 170.042"
	 enable-background="new 215.719 -211.636 322.732 170.042" xml:space="preserve">
<path fill="#9C9E9F" d="M391.797-117.988c-7.809-1.562-9.369-2.105-9.369-6.789c0-4.075,2.037-5.364,7.809-5.364
	c5.404,0,11.295,0.854,14.553,1.348l0.652-0.652l1.328-7.167l-0.73-0.73c-2.98-0.661-10.289-1.487-15.736-1.487
	c-11.338,0-17.99,3.529-17.99,13.917c0,10.795,3.326,12.898,16.904,15.615c8.146,1.629,9.572,2.104,9.572,6.721
	c0,5.158-2.172,6.109-9.232,6.109c-4.383,0-12.392-1.154-15.209-1.705l-0.778,0.777l-1.306,6.982l0.654,0.656
	c2.896,0.703,9.699,1.775,16.57,1.775c13.307,0,19.553-3.395,19.553-14.527C409.041-113.779,404.832-115.408,391.797-117.988z"/>
<polygon fill="#9C9E9F" points="341.727,-211.636 333.148,-211.636 332.58,-211.066 332.58,-202.895 333.162,-202.311 
	341.692,-202.311 342.209,-202.827 342.209,-211.155 "/>
<polygon fill="#9C9E9F" points="297.784,-199.777 289.269,-199.777 288.748,-199.256 280.094,-168.503 279.779,-168.504 
	271.58,-198.481 271.097,-198.963 264.039,-198.963 263.58,-198.504 255.111,-168.503 254.797,-168.504 246.406,-199.249 
	245.877,-199.777 236.519,-199.777 236.123,-199.381 249.801,-150.445 250.5,-149.744 257.178,-149.744 257.855,-150.421 
	266.955,-183.174 267.385,-183.175 276.291,-150.413 276.959,-149.744 283.429,-149.744 284.146,-150.461 298.209,-199.353 "/>
<polygon fill="#9C9E9F" points="316.01,-211.636 307.462,-211.636 306.916,-211.09 306.916,-202.808 307.412,-202.311 
	316.006,-202.311 316.547,-202.853 316.547,-211.099 "/>
<polygon fill="#9C9E9F" points="389.83,-158.639 366.894,-158.639 366.172,-159.362 366.172,-199.181 365.575,-199.777 
	356.853,-199.777 356.191,-199.116 356.191,-150.678 356.785,-150.084 389.82,-150.084 390.406,-150.671 390.406,-158.062 "/>
<path fill="#9C9E9F" d="M359.422-138.219h-8.539l-0.492,0.492v31.143c0,8.35-3.19,9.707-10.997,9.707
	c-7.808,0-11.065-1.764-11.065-9.842v-30.893l-0.607-0.607h-8.84l-0.6,0.6v31.579c0,14.867,6.855,18.193,20.977,18.193
	c14.119,0,20.705-3.666,20.705-18.328v-31.502L359.422-138.219z"/>
<polygon fill="#9C9E9F" points="257.373,-138.219 248.383,-138.219 247.897,-137.735 247.897,-119.543 247.295,-118.939 
	226.34,-118.939 225.699,-119.582 225.699,-137.69 225.17,-138.219 216.215,-138.219 215.719,-137.723 215.719,-89.111 
	216.302,-88.525 225.131,-88.525 225.699,-89.094 225.699,-109.287 226.188,-109.775 247.322,-109.775 247.897,-109.201 
	247.897,-89.092 248.462,-88.525 257.381,-88.525 257.944,-89.09 257.944,-137.649 "/>
<path fill="#9C9E9F" d="M293.863-138.052l-0.508-0.507h-8.512l-0.556,0.556l-18.876,48.988l0.488,0.49h8.855l0.71-0.711l2.861-7.705
	l0.544-0.545h19.904l0.512,0.512l2.82,7.596l0.002-0.002l0.854,0.855h9.23l0.544-0.545L293.863-138.052z M288.651-124.59h0.392
	l6.896,18.562l-0.461,0.461h-13.342l-0.441-0.441C282.697-108.58,287.609-121.785,288.651-124.59z"/>
<path fill="#9C9E9F" d="M338.429-150.084h9.182l0.562-0.562l-18.789-48.761l-0.712-0.711h-8.26l-0.762,0.761l-18.789,48.764
	l0.508,0.509h8.742l0.848-0.847l2.809-7.564l0.549-0.55h19.867l0.566,0.565l2.783,7.498L338.429-150.084z M330.922-167.123h-13.375
	l-0.373-0.372l-0.024-0.098l6.937-18.536l0.406-0.001l6.891,18.546L330.922-167.123z"/>
<path fill="#9C9E9F" d="M491.023-83.929c-3.174-1.311-6.248-2.862-9.34-4.401c-1.541-0.777-3.115-1.525-4.605-2.316
	c-0.734-0.395-1.5-0.818-2.049-1.25c-0.051-0.042-0.092-0.1-0.092-0.225c0.1-0.189,0.25-0.498,0.355-0.896
	c0.336-1.295-0.123-2.488-0.504-3.316c-0.402-0.875-0.908-1.706-1.502-2.467c-0.592-0.763-1.27-1.457-2.012-2.074
	c-0.641-0.521-1.266-0.971-2.041-1.387c-0.768-5.197-4.141-17.829-4.885-21.125c-1.395-6.176-2.637-12.157-2.705-16.926
	c-0.055-3.74,0.043-6.559,0.602-9.771h22.342l0.439-0.438v-7.614l-0.502-0.502h-22.074l-0.506-0.506v-11.438l0.615-0.615h17.098
	l0.48-0.479v-7.792l-0.486-0.486h-17.145l-0.562-0.563v-10.038l0.463-0.463h22.107l0.512-0.511v-7.812l-0.436-0.436h-32.104
	l-0.521,0.521v42.174c-0.086,2.342,0.297,11.961,0.635,15.001c0.684,6.147,2.232,12.167,4.561,18.998
	c1.209,3.553,2.139,5.881,3.26,8.929c2.402,6.531,3.303,10.359,3.979,14.863c0.418,2.795,0.719,5.674-0.271,8.016
	c-0.494,1.163-1.213,2.127-2.15,2.781c-0.232,0.168-0.486,0.307-0.744,0.439l-0.461,0.221l-0.436,0.188
	c-0.617,0.253-0.27,0.882-0.943,1.059c-2.703,0.706-5.662,0.922-8.627,1.064c-2.977,0.136-5.998,0.165-9.045,0.345
	c-3.043,0.191-6.146,0.483-9.178,1.449c-0.756,0.244-1.502,0.541-2.227,0.896c-0.744,0.383-1.311,0.701-1.99,1
	c-1.328,0.601-2.725,1.113-4.135,1.593c-5.664,1.89-11.533,3.323-17.336,4.949c-2.904,0.81-5.807,1.646-8.666,2.616
	c-2.842,0.991-5.715,2.034-8.242,3.692c2.598-1.541,5.492-2.446,8.365-3.305c2.74-0.796,5.516-1.466,8.299-2.11
	c-1.041,0.735-1.961,1.649-2.646,2.719c-0.803,1.228-1.309,2.612-1.631,4.013c-0.166,0.702-0.246,1.42-0.414,2.084
	c-0.162,0.678-0.375,1.347-0.627,1.999c-1.016,2.617-2.672,4.963-4.607,7.011c-1.941,2.054-4.18,3.822-6.561,5.354
	c2.416-1.476,4.699-3.195,6.701-5.217c1.996-2.017,3.729-4.348,4.832-7.001c0.273-0.662,0.506-1.342,0.691-2.038
	c0.189-0.707,0.287-1.4,0.475-2.07c0.361-1.345,0.896-2.646,1.689-3.765c1.395-2.04,3.6-3.276,5.963-3.968
	c4.736-1.057,9.486-2.075,14.201-3.414c1.461-0.425,2.92-0.886,4.363-1.462c0.715-0.273,1.482-0.655,2.092-0.934
	c0.641-0.278,1.309-0.512,1.996-0.699c2.758-0.747,5.719-0.909,8.682-0.959c2.971-0.041,5.975,0.064,9.02,0.063
	c2.736-0.014,5.52-0.068,8.357-0.564c-0.049,0.115-0.102,0.229-0.146,0.345c-0.467,1.197-0.803,2.384-1.123,3.545
	c-0.629,2.321-1.184,4.573-2.09,6.634c-0.453,1.027-0.988,2.003-1.641,2.887c-0.691,0.924-1.438,1.859-2.174,2.788
	c-1.479,1.86-2.99,3.727-4.377,5.709c-1.385,1.979-2.631,4.086-3.59,6.316c-0.844,2.181-2.189,4.092-3.729,5.876
	c-1.549,1.767-3.297,3.378-5.221,4.753c-0.961,0.688-1.973,1.308-3.039,1.82c-1.066,0.5-2.199,0.917-3.395,0.979
	c1.197,0.003,2.367-0.356,3.473-0.803c1.107-0.461,2.166-1.034,3.176-1.677c2.025-1.288,3.889-2.827,5.574-4.551
	c1.662-1.723,3.207-3.688,4.209-5.911c1.039-2.095,2.336-4.043,3.781-5.887c0.395-0.505,0.82-0.991,1.232-1.484
	c-0.018,1.125,0.037,2.219,0.074,3.308c0.061,2.171,0.16,4.379-0.432,6.395c-0.156,0.495-0.367,0.969-0.66,1.378
	c-0.146,0.205-0.312,0.392-0.502,0.554l-0.623,0.559c-0.809,0.763-1.557,1.574-2.281,2.404c-1.439,1.665-2.801,3.396-4.031,5.214
	c1.33-1.744,2.783-3.392,4.305-4.962c0.764-0.781,1.551-1.542,2.379-2.239l0.633-0.506c0.238-0.182,0.451-0.395,0.639-0.626
	c0.373-0.464,0.643-0.993,0.846-1.531c0.773-2.186,0.775-4.454,0.844-6.646c0.025-1.1,0.033-2.195,0.111-3.257
	c0.039-0.528,0.098-1.052,0.209-1.526c0.039-0.167,0.088-0.318,0.139-0.459c0.574-0.653,1.15-1.305,1.73-1.96
	c0.793-0.896,1.582-1.78,2.369-2.72c0.818-0.989,1.496-2.079,2.064-3.2c1.141-2.248,1.852-4.61,2.596-6.841
	c0.752-2.229,1.506-4.362,2.881-5.827l0.307-0.176c0.416-0.203,0.824-0.427,1.209-0.694c1.557-1.052,2.695-2.606,3.391-4.202
	c1.281-2.992,1.451-6.055,1.32-8.99c0.566,0.416,1.098,0.881,1.568,1.4c0.514,0.564,0.961,1.186,1.332,1.855
	c0.389,0.686,0.564,1.232,0.492,1.653c-0.018,0.115-0.053,0.235-0.123,0.416c-0.062,0.185-0.205,0.415-0.279,0.922
	c-0.033,0.252-0.004,0.573,0.096,0.829c0.096,0.26,0.229,0.45,0.352,0.598c0.252,0.293,0.479,0.455,0.697,0.611
	c0.861,0.568,1.654,0.908,2.465,1.276c1.621,0.709,3.219,1.323,4.814,1.985c3.199,1.302,6.408,2.631,9.713,3.714
	c3.301,1.08,8.275,1.932,11.73,2.093C499.049-81.527,494.191-82.621,491.023-83.929z"/>
<path fill="#9C9E9F" d="M526.67-168.074c5.771-1.426,8.826-5.16,8.826-14.867c0-13.916-6.043-16.836-18.33-16.836h-19.207
	l-0.615,0.616v48.496l0.58,0.581h8.768l0.564-0.563v-14.749l0.506-0.506h8.93l10.24,15.2l0.619,0.618h10.453l0.447-0.448
	L526.67-168.074z M517.166-173.98h-9.355l-0.555-0.555v-16.455l0.572-0.572h9.203c5.158,0,8.484,1.086,8.484,8.758
	C525.515-175.203,522.529-173.98,517.166-173.98z"/>
<path fill="#9C9E9F" d="M417.492-199.777h-17.92l-0.68,0.679v48.31l0.705,0.705h17.895c14.732,0,22.471-3.463,22.471-24.846
	C439.963-196.314,432.224-199.777,417.492-199.777z M429.441-173.301c0,11.404-3.328,15.273-12.018,15.273h-7.842l-0.711-0.711
	v-32.331l0.562-0.562h7.99c8.689,0,12.018,3.598,12.018,15.07V-173.301z"/>
</svg>
