<?xml version="1.0" encoding="utf-8"?>
<!-- Generator: Adobe Illustrator 16.0.0, SVG Export Plug-In . SVG Version: 6.00 Build 0)  -->
<!DOCTYPE svg PUBLIC "-//W3C//DTD SVG 1.1//EN" "http://www.w3.org/Graphics/SVG/1.1/DTD/svg11.dtd">
<svg version="1.1" id="Ebene_1" xmlns="http://www.w3.org/2000/svg" xmlns:xlink="http://www.w3.org/1999/xlink" x="0px" y="0px"
	 width="149.489px" height="146.746px" viewBox="232.702 -20.726 149.489 146.746"
	 enable-background="new 232.702 -20.726 149.489 146.746" xml:space="preserve">
<g>
	<path fill="#9C9E9F" d="M268.336,71.56h-0.256v4.505c1.803,0,2.652-0.596,2.652-2.21C270.732,72.308,269.933,71.56,268.336,71.56z"
		/>
	<polygon fill="#9C9E9F" points="322.599,67.854 321.511,73.565 323.72,73.565 322.633,67.854 	"/>
	<path fill="#9C9E9F" d="M313.842,46.512h-0.664v4.177c2.133,0,2.988-0.416,3.088-2.088
		C316.342,47.301,315.379,46.512,313.842,46.512z"/>
	<polygon fill="#9C9E9F" points="273.032,45.858 271.437,54.073 274.677,54.073 273.082,45.858 	"/>
	<path fill="#9C9E9F" d="M270.545,68.33c0-1.173-0.595-1.819-2.125-1.819h-0.34v3.655h0.271
		C269.594,70.166,270.545,69.707,270.545,68.33z"/>
	<path fill="#9C9E9F" d="M357.787,66.341c-0.9,0-1.494,1.258-1.494,5.219c0,2.533,0.236,4.675,1.494,4.675
		c1.225,0,1.48-2.142,1.48-5.338C359.267,67.106,358.621,66.341,357.787,66.341z"/>
	<path fill="#9C9E9F" d="M380.33,24.733c-0.16-6.643-5.727-11.947-12.369-11.786l-0.395,0.01l0.025-5.033l1.463-0.592l-1.281-1.048
		V2.091h-1.115V4.74l-3.748-6.505l-0.047-0.748l-0.041,0.747L360.08,2.92h-2.811c-0.146-1.907,1.432-2.363,1.432-2.363l-0.027-0.569
		c0,0-1.037-0.674-1.404-1.247s-3.26-10.604-3.26-10.604s-0.51-10.362-0.51-8.678c0,1.686-0.457,8.678-0.457,8.678
		s-3.051,10.36-3.434,10.84c-0.383,0.478-1.193,0.966-1.193,0.966s-0.088,0.534,0,0.584c1.775,1.024,1.527,3.737,1.527,3.737
		h-10.895v-2.06h-0.682v0.26h-1.357l-2.553-4.325L334.41-2.4v0.545l-2.721,4.358h-1.271V1.829h-0.818v1.573h-9.957v2.545h-6.195
		v1.385v2.253l1.012-0.001l-0.029,4.652l-32.875,0.792l-0.015-0.401l-0.226-0.321l0.076-0.884l-0.168-0.214l-0.021-2.913
		l0.174-0.391l-0.018-0.495l-1.305-1.191l-0.131-0.683l-0.455,0.071l-1.328-1.878l-0.152-0.518l-0.135-0.022l-0.058-0.851
		l-1.265-0.039l-0.051,0.883l-0.186,0.061l-0.136,0.72L274.951,7.6l-0.562,0.073l-0.133,0.803l-1.044,0.916l-0.196,0.529l0.281,0.32
		l-0.018,4.124l-0.26,0.284l-0.028,0.585l-16.496,0.396c-0.11,0.001-0.228,0.009-0.343,0.015
		c-6.48,0.339-11.602,5.824-11.447,12.354l0.284,11.086c-1.867-0.197-3.57-0.386-3.724-0.425c-0.106-0.035-0.543-0.378-0.834-0.605
		c-0.365-0.288-0.711-0.56-0.9-0.654c-0.118-0.06-0.256-0.166-0.374-0.257c-0.187-0.143-0.279-0.213-0.388-0.213l-0.127,0.007
		l-0.057,0.096c-0.072,0.121-0.01,0.254,0.086,0.429c0.238,0.436,1.262,1.105,1.924,1.501l-1.936-0.187
		c-0.025-0.027-0.055-0.048-0.08-0.073c-0.184-0.181-0.266-0.264-0.385-0.264l-0.118,0.007l-0.058,0.085
		c-0.037,0.053-0.043,0.113-0.034,0.179l-0.45-0.043l-0.366-0.147c-0.016-0.026-0.006-0.06-0.026-0.083
		c-0.088-0.101-0.406-0.247-1.701-0.789c-0.457-0.191-0.863-0.36-0.975-0.422c-0.306-0.169-0.496-0.142-0.639-0.051l-1.126-0.451
		l0.381,0.67l0.093,0.083c0.024,0.011,0.176,0.077,0.373,0.163c0.027,0.073,0.078,0.15,0.143,0.239
		c0.234,0.324,0.428,0.446,0.511,0.482c0.004,0.001,0.419,0.087,0.726,0.252c0.284,0.152,1.668,0.659,2.017,0.659l0.149-0.014
		l0.059-0.078c0.008-0.012,0.008-0.034,0.016-0.048c0.072,0.025,0.16,0.059,0.213,0.073c0.1,0.029,0.443,0.074,0.926,0.129
		c0.545,0.672,1.729,1.576,1.889,1.697l0.055,0.041l3.434-0.08c-1.887,0.426-3.51,0.808-3.748,0.91
		c-0.067,0.03-0.172,0.083-0.271,0.134c-0.007-0.008-0.012-0.02-0.019-0.026l-0.088-0.069h-0.084c-0.32,0-1.707,0.732-1.961,0.916
		c-0.285,0.204-0.684,0.342-0.746,0.374c-0.02,0.016-0.195,0.161-0.406,0.551c-0.038,0.069-0.067,0.135-0.082,0.201
		c-0.153,0.092-0.271,0.163-0.292,0.175l-0.377,0.812l0.954-0.537c0.059,0.043,0.129,0.079,0.22,0.079
		c0.155,0,0.292-0.103,0.45-0.22c0.102-0.075,0.48-0.293,0.908-0.541c1.218-0.705,1.515-0.893,1.588-1.002
		c0.027-0.04,0.037-0.084,0.051-0.127l0.326-0.183l3.02-0.694c-0.578,0.464-1.507,1.26-1.686,1.723
		c-0.07,0.18-0.113,0.314-0.038,0.425l0.071,0.092h0.104c0.12,0,0.208-0.088,0.385-0.263c0.105-0.105,0.227-0.229,0.338-0.303
		c0.176-0.119,0.486-0.435,0.814-0.769c0.256-0.261,0.645-0.656,0.738-0.702c0.074-0.029,0.545-0.149,1.201-0.311l0.234,9.188
		c-0.342-0.175-1.059-0.683-2.178-1.552c-0.161-0.126-0.281-0.219-0.334-0.257c-0.188-0.135-0.426-0.155-0.6-0.17
		c-0.01,0-0.02-0.001-0.029-0.002c0.009-0.141-0.014-0.307-0.069-0.53l0.05-0.103c0.045-0.032,0.1-0.074,0.151-0.138
		c0.132-0.165,0.155-0.603,0.073-0.775l-0.098-0.148h-0.096c0.109-0.39,0-0.651-0.014-0.68l-0.197-0.466l-0.162,0.469
		c0,0.001-0.038,0.068-0.167,0.14c-0.021-0.004-0.081-0.043-0.12-0.068c-0.207-0.136-0.598-0.291-1.005-0.037
		c-0.698,0.434-2.751,4.064-3.153,4.995c-0.527,1.216-0.486,2.629,0.1,3.438c0.316,0.437,0.738,0.542,1.046,0.619
		c0.364,0.091,0.435,0.13,0.431,0.361c-0.012,0.59-0.546,0.606-0.605,0.606c-0.077,0-0.148-0.013-0.189-0.037l-0.156-0.086
		c-0.547-0.3-1.109-0.611-1.642-0.62c-0.46,0-1.16,0.067-1.931,0.638c-0.725,0.538-0.672,1.479-0.381,2.18
		c0.08,0.196,0.198,0.37,0.312,0.538c0.132,0.194,0.257,0.38,0.287,0.553c0.045,0.257,0.117,0.511,0.24,0.935l0.218,0.764
		c0.096,0.345,0.487,1.036,0.504,1.063l0.157,0.276l0.177-0.262c0.258-0.381,0.246-0.593,0.235-0.779
		c-0.002-0.06-0.006-0.119,0.002-0.19c0.035-0.252,0.014-0.381-0.01-0.517c-0.02-0.121-0.041-0.257-0.027-0.541
		c0.076-1.477,0.016-2.509-0.182-3.085c0.168,0.036,0.435,0.117,0.84,0.293c0.586,0.254,1.108,0.377,1.597,0.377
		c0.541,0,0.935-0.153,1.253-0.277c0.1-0.039,0.195-0.076,0.286-0.104c0.722-0.226,0.894-0.801,1.06-1.358
		c0.069-0.229,0.094-0.419,0.114-0.586c0.03-0.257,0.052-0.426,0.233-0.642c0.834-0.999,0.961-1.839,0.975-2.181l0.252-0.083
		l0.085-0.057c0.019-0.019,0.162-0.193,0.147-0.51c0.248-0.141,1.326-0.34,2.17-0.463c0,0,0.166,0.058,0.377,0.129l1.248,48.875
		c0.162,6.638,5.726,11.941,12.369,11.781c0,0,9.857-0.271,25.184-0.639c0.303,0.222,0.781,0.733,0.966,2.057
		c0.04,0.284,0.457,0.823,0.601,1.101c0.16,0.304,0.293,0.94,0,1.168c0.004-0.12-0.135-0.096-0.174-0.174
		c0.016-0.081-0.016-0.116-0.023-0.174c-0.438-0.751-1.055-1.724-1.566-2.46c-0.326-0.475-0.498-1.139-1.191-1.095
		c-0.055,0.094-0.135,0.307,0,0.373c-0.236,0.065-0.512,0.255-0.771,0.225c-0.188-0.023-0.296-0.237-0.472-0.174
		c-0.047,0.06-0.008,0.206-0.051,0.272c-0.159,0.014-0.277,0.069-0.248,0.273c0.104,0.104,0.219,0.046,0.397,0.074
		c0.199,0.238,0.691,0.135,0.944,0.025c0.059-0.099,0.34,0.005,0.373,0.074c0.046,0.098,0.154,0.123,0.199,0.249
		c0.026,0.075,0.004,0.17,0.024,0.248c0.097,0.375,0.269,0.934,0.423,1.243c0.217,0.438,0.647,0.745,0.819,1.192
		c0.101,0.265,0.123,0.641,0.198,0.994c0.099,0.466,0.236,0.922,0.148,1.342c-0.049,0.075-0.168,0.08-0.173,0.199
		c0.169,0.483,0.343,0.828,0.695,1.193c0.18,0.186,0.655,0.39,0.696,0.621c0.051,0.291-0.182,0.682-0.076,0.97
		c-0.092-0.042-0.049,0.005-0.098,0.049c0.012,0.161-0.029,0.377,0.024,0.497c0.16,0.174,0.403,0.084,0.521,0.299
		c0.106,0.193-0.047,0.527,0.199,0.646c0.083-0.034,0.213-0.123,0.299-0.075c-0.017,0.093-0.076,0.156-0.025,0.249
		c0.576,0.565,1.041,1.378,2.261,1.218c0.022-0.503-0.419-0.542-0.397-1.044c0.211-0.13,0.393-0.287,0.695-0.323
		c0.067,0.018-0.018-0.118,0.051-0.1c0.168,0.119,0.342-0.097,0.371-0.273c-0.084-0.106-0.312-0.23-0.371-0.472
		c-0.059-0.237,0.061-0.514,0.024-0.771c-0.021-0.139-0.108-0.254-0.125-0.372c-0.056-0.396,0.125-0.538,0.224-0.721
		c0.17,0.045,0.653,0.224,0.746,0.198c0.526,0.191,0.865,0.418,1.49,0.498c0.164,0.174,0.416,0.178,0.596,0.323
		c0.092,0.073,0.178,0.263,0.273,0.396c0.29,0.408,0.58,0.837,0.845,1.218c0.05,0.081,0.761,0.995,1.068,1.517
		c-0.095,0.091-0.412,0.152-0.323,0.448c0.007,0.021,0.232,0.212,0.348,0.272c0.142,0.074,0.467,0.092,0.771,0.248
		c0.267,0.138,0.45,0.285,0.621,0.324c0.511,0.116,0.915-0.047,0.819-0.547c-0.016-0.016-0.029-0.035-0.046-0.051
		c0.28-1.514,0.199-4.071-0.21-5.488c-0.426-1.479-0.15-1.754,0-2.807c0.136-0.947-0.053-1.523-0.184-2.373
		c0.012,0.414,0.021,0.839,0.021,1.232c0,1.178-0.314,1.065-0.314,1.942s0.227,3.534,0.227,4.888c0,0.866-0.185,1.411-0.318,1.693
		c-0.016-0.019-0.029-0.038-0.045-0.057c0.049-0.047,0.012-0.118,0-0.174c-0.325-0.299-0.836-0.381-1.068-0.746
		c-0.527-0.825-0.996-1.974-1.49-2.808c-0.669-0.39-1.525-0.914-2.285-1.269c-0.443-0.206-1.074-0.319-1.043-0.919
		c-0.152-0.263-0.234-0.441-0.199-0.721c0.052-0.425,0.379-0.437,0.334-0.76c-0.024-0.175-0.096-0.6-0.16-0.781
		c0.15-0.256,0.201-0.766,0.252-0.912c0.052-0.154,0.123-0.874,0.183-1.053c0.142-0.433,0.194-1.522,0.194-1.835
		s0.912-0.688,1.583-0.688c1.34-0.031,2.704-0.064,4.082-0.098c-0.005,0.061-0.01,0.119-0.01,0.197c0,0.626,0,0.25,0,0.852
		c0,0.23,0.012,0.588,0.026,1.006c0.085-0.573,0.312-0.945,0.166-1.33c-0.096-0.252-0.071-0.517-0.021-0.729
		c3.495-0.084,7.094-0.171,10.74-0.259v6.565l1.008-0.015l0.009-4.337h1.475l-0.024-1.547h0.145l0.025,3.155l1.43,0.016l0.02,2.641
		h0.888l-0.015-2.203l1.442,0.01l-0.003-3.618h0.23l-0.018,5.759l1.793-0.025l-0.045-2.486l1.561-0.059l-0.023-3.188h0.221
		l-0.002,2.16h1.672v3.527l0.836-0.004l-0.008-4.042l0.771,0.002l0.016,3.998l0.865,0.008l-0.029-3.781l1.562-0.005l-0.01,0.74
		l0.275-0.012l-0.008,1.377l1.441-0.012l-0.008,1.632h0.873l-0.033-1.768l1.523-0.004l-0.059-3.817h0.25l0.098,5.552l1.605-0.02
		l-0.008-1.202l1.488,0.004l0.004-4.334h0.287l0.047,3.261h1.555l0.037,2.184l0.902-0.01l-0.074-2.706l1.363,0.002l-0.031-2.73
		h0.244l0.006,0.606l1.533-0.026l0.061,3.131l0.668,0.009l-0.008,1.653l0.793-0.044l0.014-3.61l1.576-0.018l-0.023-1.701h0.26
		l0.051,2.661l1.367-0.011l0.055,2.604l0.904-0.004l-0.041-4.405l1.52,0.004l-0.021-0.849h0.207l0.086,5.218h1.623l-0.027-1.957
		h1.629l-0.062-3.261h0.227l0.031,2.19l1.561-0.003l0.031,2.966h0.832l-0.004-3.493l1.314-0.003v-1.657h0.264l0.004,0.536
		l1.533,0.043l0.061,0.947l0.875,0.006l-0.021-1.532h0.031l0.072,5.076l0.832-0.043v-4.406l1.549,0.019l-0.012-0.646h0.254
		l0.031,1.566l1.373,0.008l0.033,3.409l0.854,0.012l0.016-2.183l1.504-0.012l-0.033-2.801h0.252l0.074,4.926l1.584,0.032
		l0.018-3.105l1.621,0.04l-0.039-1.893h0.244l0.014,0.683l1.529,0.055l0.004,4.112l0.91-0.008l-0.027-3.122l1.371-0.024
		l-0.047-3.818c1.99-0.048,3.102-0.075,3.113-0.076c6.48-0.339,11.602-5.828,11.445-12.358L380.33,24.733z M241.47,40.497
		c-0.832,0-0.986-0.021-0.996-0.021c-0.103-0.048-0.492-0.445-0.75-0.709c-0.111-0.113-0.213-0.213-0.314-0.314
		c1.602,0.162,3.825,0.361,5.602,0.518l0.012,0.474C243.89,40.47,242.445,40.497,241.47,40.497z M242.325,51.634
		c-0.042-0.001-0.069-0.002-0.086,0.002c-0.013-0.409-0.099-1.293-0.14-1.704c0.09,0.008,0.215,0.023,0.39,0.053
		c0.31,0.051,1.18,0.672,1.808,1.166C243.778,51.324,242.789,51.634,242.325,51.634z M258.254,66.511h-2.821v3.655h2.821v1.479
		h-2.821v4.42h2.821v1.479h-4.555V65.032h4.555V66.511z M264.765,77.543h-4.521V65.032h1.733v10.947h2.788V77.543z M262.588,60.062
		l-2.42-15.304h-0.058l-2.392,15.304h-2.207L252.106,38.4h2.411l2.031,15.245h0.059l2.418-15.245h2.257l2.39,15.245h0.059
		l2.178-15.245h2.441l-3.534,21.661H262.588z M268.862,77.543h-2.517V65.032h2.432c2.805,0,3.502,1.818,3.502,3.128
		c0,1.377-0.494,2.158-1.684,2.686c1.428,0.459,1.955,1.632,1.955,3.06C272.551,75.062,272.109,77.543,268.862,77.543z
		 M276.511,77.543h-1.733V65.032h1.733V77.543z M275.92,60.062l-0.724-3.617h-4.097l-0.723,3.617h-2.478l3.862-18.339h2.541
		l4.138,18.339H275.92z M284.943,77.543h-1.733l-2.55-7.921h-0.034v7.921h-1.649V65.032h1.734l2.55,7.921h0.034v-7.921h1.648V77.543
		z M284.099,60.413c-2.2,0-3.653-1.363-3.918-3.873l2.136-0.683c0.132,1.497,0.603,2.354,1.725,2.354c0.815,0,1.71-0.396,1.71-1.694
		c0-0.88-0.375-1.871-1.586-3.082l-1.761-1.739c-1.452-1.452-2.003-2.707-2.003-4.292c0-2.399,1.738-3.852,3.609-3.852
		c2.225,0,3.633,1.342,3.699,3.544l-2.025,0.726c-0.088-1.211-0.519-1.942-1.465-2.032c-0.623-0.061-1.572,0.579-1.572,1.482
		c0,0.814,0.352,1.739,1.518,2.883l1.827,1.784c1.541,1.496,2.004,2.729,2.004,4.424C287.997,58.587,286.654,60.413,284.099,60.413z
		 M289.704,77.798c-1.7,0-2.821-1.054-3.026-2.991l1.649-0.527c0.103,1.156,0.526,2.04,1.394,2.04c0.629,0,1.258-0.527,1.258-1.53
		c0-0.68-0.289-1.444-1.224-2.38l-1.36-1.343c-1.121-1.122-1.547-2.091-1.547-3.314c0-1.853,1.344-2.975,2.789-2.975
		c1.717,0,2.805,1.037,2.855,2.736l-1.564,0.562c-0.068-0.936-0.374-1.734-1.258-1.734c-0.68,0-1.088,0.612-1.088,1.31
		c0,0.629,0.271,1.343,1.173,2.227l1.411,1.377c1.189,1.155,1.547,2.107,1.547,3.416C292.713,76.387,291.676,77.798,289.704,77.798z
		 M289.866,56.026l2.204-0.632c0.15,1.695,0.986,2.851,2.258,2.851c0.924,0,1.902-0.894,1.902-2.364
		c0-0.997-0.424-2.118-1.795-3.489l-1.994-1.97c-1.645-1.646-2.268-3.066-2.268-4.86c0-2.717,1.912-4.242,4.03-4.242
		c2.517,0,4.113,1.521,4.187,4.014l-1.993,0.729c-0.101-1.371-0.847-2.448-2.144-2.448c-0.998,0-1.836,0.932-1.836,1.953
		c0,0.922,0.399,1.969,1.721,3.266l2.068,2.019c1.745,1.695,2.27,3.091,2.27,5.01c0,2.519-1.281,4.553-4.174,4.553
		C291.81,60.413,290.165,58.868,289.866,56.026z M299.003,66.511h-2.821v3.655h2.821v1.479h-2.821v4.42h2.821v1.479h-4.556V65.032
		h4.556V66.511z M305.513,77.543h-4.521V65.032h1.734v10.947h2.787V77.543z M307.941,41.543h-4.711v6.067h4.24v2.332h-4.24v7.754
		h4.711v2.365h-7.131V39.176h7.131V41.543z M316.156,77.543l-2.873-6.238h-0.035v6.238h-1.732V65.032h1.732v5.66h0.035l2.736-5.66
		h1.869l-2.99,5.864l3.195,6.646H316.156z M316.488,60.062l-2.881-7.192h-0.371v7.192h-2.436V44.354h3.639
		c2.369,0,4.055,1.687,4.055,4.312c0,1.601-0.795,3.393-2.588,3.884l3.18,7.512H316.488z M324.469,77.543l-0.494-2.584h-2.736
		l-0.492,2.584h-1.648l2.635-12.511h1.732l2.822,12.511H324.469z M324.209,50.163h-0.053v9.898h-2.41v-19.85h2.41v8.98h0.053
		l4.342-8.98h2.748l-4.75,9.305l4.898,10.545h-2.68L324.209,50.163z M332.662,77.543h-4.521V65.032h1.734v10.947h2.787V77.543z
		 M338.595,66.596h-2.211v10.947h-1.732V66.596h-2.211v-1.563h6.154V66.596z M337.361,60.413c-2.395,0-4.131-1.078-4.131-4.621v-13
		h2.395v12.976c0,1.08,0.258,2.488,1.736,2.488c1.43,0,1.688-1.408,1.688-2.488V42.792h2.395v13
		C341.443,59.335,339.707,60.413,337.361,60.413z M344.834,66.511h-2.822v3.655h2.822v1.479h-2.822v4.42h2.822v1.479h-4.555V65.032
		h4.555V66.511z M352.568,77.543h-1.732v-5.898h-2.5v5.898h-1.734V65.032h1.734v5.134h2.5v-5.134h1.732V77.543z M353.76,60.062
		h-2.256l-4.396-13.116l-0.146-0.398v13.515h-2.381V39.346h2.32l4.424,13.117h0.057V39.346h2.379V60.062z M357.787,77.798
		c-3.008,0-3.314-3.28-3.314-6.51c0-3.451,0.613-6.511,3.314-6.511c2.992,0,3.299,3.28,3.299,6.511
		C361.086,74.738,360.474,77.798,357.787,77.798z M360.607,60.413c-2.312,0-3.84-1.433-4.117-4.069l2.244-0.717
		c0.139,1.572,0.717,2.774,1.896,2.774c0.855,0,1.711-0.717,1.711-2.081c0-0.925-0.393-1.966-1.666-3.237l-1.85-1.827
		c-1.525-1.526-2.104-2.845-2.104-4.51c0-2.521,1.826-4.047,3.791-4.047c2.336,0,3.816,1.41,3.887,3.724l-2.129,0.763
		c-0.092-1.272-0.508-2.359-1.711-2.359c-0.924,0-1.48,0.833-1.48,1.781c0,0.856,0.371,1.827,1.596,3.029l1.92,1.874
		c1.619,1.572,2.105,2.867,2.105,4.647C364.701,58.494,363.291,60.413,360.607,60.413z M367.562,66.511h-2.822v3.655h2.822v1.479
		h-2.822v5.898h-1.732V65.032h4.555V66.511z M373.886,66.511h-2.822v3.655h2.822v1.479h-2.822v4.42h2.822v1.479h-4.557V65.032h4.557
		V66.511z M374.791,42.511h-3.721v17.551h-2.352V42.511h-3.793v-2.394h9.865V42.511z"/>
</g>
</svg>
