<?xml version="1.0" encoding="utf-8"?>
<!-- Generator: Adobe Illustrator 16.0.0, SVG Export Plug-In . SVG Version: 6.00 Build 0)  -->
<!DOCTYPE svg PUBLIC "-//W3C//DTD SVG 1.1//EN" "http://www.w3.org/Graphics/SVG/1.1/DTD/svg11.dtd">
<svg version="1.1" id="Ebene_1" xmlns="http://www.w3.org/2000/svg" xmlns:xlink="http://www.w3.org/1999/xlink" x="0px" y="0px"
	 width="744.075px" height="720.072px" viewBox="0 0 744.075 720.072" enable-background="new 0 0 744.075 720.072"
	 xml:space="preserve">
<path fill-rule="evenodd" clip-rule="evenodd" fill="#9B9B9B" d="M643.999,85.869c-181.262,0-362.525,0-543.787,0
	c-1.979,0-1.98,0.002-1.98,1.955c-0.002,23.068-0.002,46.135-0.002,69.203c0,158.244,0,316.488,0,474.732c0,0.729,0,1.457,0,2.42
	c87.025-39.523,178.068-59.322,273.393-59.365c95.312-0.043,186.379,19.516,273.254,59.389
	c0.324-182.916,0.646-365.516,0.969-548.334C645.112,85.869,644.556,85.869,643.999,85.869z M220.247,247.85
	c-3.689,20.107-13.398,37.143-26.561,52.504c-8.926,10.416-17.105,21.414-23.627,33.545c-1.771,3.297-3.297,6.709-3.963,10.434
	c-0.047,0.27-0.068,0.543-0.113,0.902c0.258,0.07,0.467,0.18,0.676,0.178c5.658-0.049,11.324,0.055,16.975-0.209
	c6.396-0.299,11.504-3.279,15.361-8.365c3.41-4.496,5.191-9.67,6.148-15.172c0.111-0.637,0.225-1.271,0.346-1.959
	c4.225,0,8.369,0,12.705,0c0,0.566,0,1.062,0,1.561c0,11.744-0.021,23.488,0.029,35.232c0.008,1.363-0.396,1.709-1.732,1.707
	c-31.207-0.037-62.416-0.037-93.623,0c-1.365,0.002-1.732-0.404-1.727-1.738c0.043-9.662,2.631-18.732,6.377-27.516
	c5.586-13.102,13.84-24.422,23.357-34.924c8.945-9.873,16.984-20.43,22.9-32.447c1.373-2.785,2.404-5.74,3.713-8.904
	c-4.73,0-8.996-0.23-13.223,0.076c-3.174,0.229-6.43,0.775-9.42,1.83c-7.559,2.664-12.254,8.326-14.973,15.688
	c-0.836,2.262-1.352,4.654-1.854,7.021c-0.203,0.963-0.578,1.197-1.473,1.186c-3.088-0.041-6.176-0.043-9.264-0.002
	c-0.975,0.016-1.301-0.326-1.299-1.301c0.023-11.979,0.023-23.957,0-35.934c-0.002-0.973,0.318-1.398,1.297-1.295
	c0.277,0.031,0.561,0.004,0.842,0.004c30.318,0,60.637,0,90.957,0c0.598,0,1.195,0,2.152,0
	C220.896,242.717,220.712,245.309,220.247,247.85z M330.122,358.193c-17.967-0.043-35.932-0.049-53.898-0.08
	c-14.363-0.025-28.725-0.072-43.088-0.109c-0.459-0.002-0.918,0-1.592,0c0-4.115-0.02-7.99,0.035-11.865
	c0.004-0.289,0.492-0.754,0.816-0.818c0.678-0.131,1.396-0.041,2.098-0.057c4.619-0.102,8.307-3.68,8.572-8.326
	c0.043-0.746,0.049-1.496,0.049-2.244c0.002-23.814,0.008-47.629-0.016-71.443c0-1.344-0.051-2.736-0.389-4.023
	c-1.051-4.008-4.426-6.512-8.574-6.541c-0.787-0.006-1.576-0.002-2.43-0.002c-0.066-0.416-0.16-0.727-0.16-1.035
	c-0.012-3.51,0.014-7.018-0.023-10.527c-0.01-0.885,0.232-1.336,1.18-1.219c0.277,0.035,0.561,0.004,0.842,0.004
	c32.002,0,64.004,0,96.006,0c1.959,0,1.963,0.002,1.963,1.994c0,11.508,0,23.018,0,34.527c0,2.033-0.004,2.035-2.1,2.035
	c-3.135,0-6.27-0.029-9.404,0.016c-0.967,0.016-1.338-0.266-1.531-1.285c-1.111-5.852-3.139-11.338-6.908-16.051
	c-4.422-5.525-10.199-8.34-17.26-8.461c-3.93-0.068-7.861-0.021-11.791-0.021c-0.412,0-0.824,0.043-1.344,0.07
	c-0.027,0.512-0.07,0.965-0.07,1.418c-0.004,12.305,0.02,24.609-0.037,36.914c-0.006,1.348,0.424,1.709,1.67,1.598
	c1.486-0.131,3-0.02,4.473-0.225c4.393-0.615,7.818-4.287,8.137-8.717c0.123-1.715,0.02-3.445,0.02-5.393c1.072,0,1.939,0,2.807,0
	c2.947,0,5.895,0.035,8.842-0.018c0.992-0.02,1.277,0.328,1.275,1.293c-0.023,12.961-0.014,25.92-0.02,38.879
	c0,0.59,0.135,1.289-0.83,1.287c-3.924-0.006-7.848-0.002-12.021-0.002c0-1.408,0.006-2.699,0-3.99
	c-0.027-6.266-4.104-10.32-10.383-10.328c-1.254-0.002-2.506,0-3.859,0c-0.029,0.588-0.072,1.041-0.072,1.494
	c-0.004,12.307,0.012,24.611-0.029,36.916c-0.004,1.197,0.25,1.635,1.535,1.596c4.439-0.133,8.891-0.004,13.324-0.242
	c6.375-0.346,11.518-3.254,15.52-8.178c3.869-4.762,5.922-10.34,7.045-16.289c0.172-0.912,0.506-1.133,1.352-1.123
	c3.461,0.035,6.924,0.047,10.385-0.006c0.994-0.016,1.291,0.33,1.289,1.287c-0.021,11.977-0.023,23.955,0.002,35.932
	C331.528,357.883,331.14,358.195,330.122,358.193z M407.009,357.881c-21.092,0-42.016,0-63.105,0
	c-0.023-0.428-0.068-0.875-0.07-1.324c-0.006-3.229,0.066-6.457-0.035-9.682c-0.043-1.359,0.455-1.682,1.688-1.631
	c1.207,0.051,2.457,0.057,3.629-0.195c4.553-0.975,7.326-4.576,7.33-9.459c0.016-13.801,0.006-27.6,0.006-41.4
	c0-10.387,0.004-20.771,0-31.156c-0.002-6.596-3.752-10.338-10.363-10.35c-0.689,0-1.379,0-2.252,0
	c0-4.094-0.025-7.926,0.043-11.758c0.006-0.328,0.588-0.717,0.98-0.943c0.248-0.141,0.641-0.031,0.969-0.031
	c19.74,0,39.482,0,59.225,0c1.947,0,1.953,0.004,1.955,1.891c0.004,3.041,0.006,6.082-0.002,9.123
	c-0.002,0.506-0.053,1.014-0.086,1.582c-1.604,0.127-3.145,0.123-4.635,0.393c-4.533,0.822-7.824,4.695-7.828,9.27
	c-0.025,24.514-0.027,49.027,0,73.541c0.006,5.252,4.148,9.355,9.424,9.514c3.129,0.092,3.129,0.092,3.129,3.258
	C407.009,351.602,407.009,354.682,407.009,357.881z M512.349,356.881c-0.502,0.898-1.107,1.324-2.213,1.322
	c-29.426-0.031-58.852-0.027-88.277-0.01c-1.064,0-1.615-0.186-1.611-1.443c0.039-11.93,0.021-23.859,0.027-35.789
	c0-0.365,0.064-0.73,0.105-1.189c0.398-0.049,0.752-0.129,1.105-0.131c3.461-0.01,6.924,0.018,10.385-0.021
	c0.916-0.012,1.273,0.227,1.406,1.217c0.543,4.049,1.682,7.936,3.525,11.6c4.146,8.242,10.725,12.77,20.043,12.963
	c4.957,0.102,9.918,0.02,14.877,0.016c0.18,0,0.359-0.057,0.812-0.135c-0.193-1.018-0.311-2.012-0.578-2.965
	c-1.377-4.906-3.803-9.332-6.436-13.643c-6.695-10.961-14.455-21.139-22.828-30.869c-7.527-8.75-14.283-18.027-18.928-28.688
	c-2.406-5.521-4.096-11.229-4.244-17.299c-0.09-3.729,0.41-7.357,2.115-10.748c0.404-0.807,0.928-1.135,1.857-1.135
	c29.193,0.021,58.385,0.023,87.576-0.002c1.129-0.002,1.408,0.379,1.404,1.455c-0.033,11.883-0.033,23.766,0.002,35.648
	c0.002,1.09-0.297,1.473-1.416,1.449c-2.992-0.064-5.988-0.066-8.98,0c-1.152,0.027-1.439-0.418-1.631-1.506
	c-1.432-8.107-4.801-15.109-11.807-19.92c-4.125-2.834-8.793-4.109-13.717-4.338c-4.156-0.195-8.326-0.096-12.49-0.117
	c-0.32-0.002-0.641,0.055-1.152,0.104c0.98,4.678,2.754,8.879,4.92,12.914c5.482,10.217,12.811,19.035,20.559,27.594
	c9.889,10.926,18.668,22.666,24.354,36.43c2.045,4.951,3.449,10.076,3.678,15.453C514.968,349.213,514.405,353.205,512.349,356.881z
	 M617.933,356.764c-0.557,1.01-1.225,1.443-2.432,1.441c-29.336-0.033-58.672-0.035-88.01,0c-1.354,0.002-1.738-0.393-1.732-1.74
	c0.049-11.744,0.049-23.488,0-35.232c-0.006-1.316,0.396-1.656,1.664-1.625c3.32,0.082,6.645,0.053,9.965,0.01
	c0.914-0.01,1.27,0.248,1.445,1.211c1.203,6.582,3.51,12.691,8.08,17.74c4.162,4.598,9.453,6.74,15.582,6.836
	c4.912,0.076,9.826,0.018,14.738,0.014c0.182,0,0.363-0.049,0.818-0.111c-0.18-0.971-0.283-1.916-0.531-2.82
	c-1.307-4.781-3.639-9.102-6.176-13.305c-6.373-10.559-13.723-20.414-21.76-29.75c-7.406-8.605-14.258-17.578-19.201-27.867
	c-2.875-5.979-4.949-12.201-5.336-18.881c-0.227-3.871,0.281-7.635,1.891-11.219c0.506-1.125,1.182-1.547,2.461-1.545
	c28.074,0.041,56.146,0.031,84.219,0.031c1.357,0,2.717,0.039,4.07-0.012c0.943-0.037,1.346,0.273,1.344,1.271
	c-0.021,11.979-0.02,23.955-0.002,35.934c0.002,0.934-0.275,1.346-1.281,1.334c-3.463-0.045-6.926-0.043-10.387,0
	c-0.984,0.012-1.203-0.404-1.354-1.309c-1.201-7.188-3.902-13.643-9.494-18.586c-4.271-3.775-9.4-5.549-14.992-5.852
	c-4.342-0.232-8.701-0.098-13.053-0.121c-0.18-0.002-0.361,0.055-0.699,0.109c0.957,4.65,2.697,8.869,4.807,12.938
	c5.246,10.121,12.168,19.035,19.727,27.518c8.736,9.805,16.656,20.207,22.406,32.105c2.635,5.453,4.701,11.107,5.369,17.16
	C620.624,347.375,620.419,352.246,617.933,356.764z"/>
</svg>
